<?xml version="1.0" encoding="utf-8"?>
<!-- Generator: Adobe Illustrator 26.0.3, SVG Export Plug-In . SVG Version: 6.00 Build 0)  -->
<svg version="1.1" id="레이어_1" xmlns="http://www.w3.org/2000/svg" xmlns:xlink="http://www.w3.org/1999/xlink" x="0px"
	 y="0px" viewBox="0 0 20 24" style="enable-background:new 0 0 20 24;" xml:space="preserve">
<style type="text/css">
	.st0{fill-rule:evenodd;clip-rule:evenodd;fill:#FFFFFF;}
</style>
<g>
	<path class="st0" d="M10,9.3c1.7,0,3.1-1.4,3.1-3s-1.3-3-3.1-3c-1.7,0-3.1,1.4-3.1,3S8.3,9.3,10,9.3z M10,10.9c2.6,0,4.7-2,4.7-4.6
		S12.6,1.7,10,1.7c-2.6,0-4.7,2-4.7,4.6S7.4,10.9,10,10.9z"/>
	<path class="st0" d="M13.3,12.5H6.7c-2.4,0-4.4,2-4.4,4.4v3.8h15.5v-3.8C17.7,14.4,15.8,12.5,13.3,12.5z M6.7,10.9
		c-3.3,0-6,2.7-6,6v5.4h18.7v-5.4c0-3.3-2.7-6-6-6H6.7z"/>
</g>
</svg>
