<?xml version="1.0" encoding="utf-8"?>
<!-- Generator: Adobe Illustrator 24.1.2, SVG Export Plug-In . SVG Version: 6.00 Build 0)  -->
<svg version="1.1" baseProfile="tiny" id="레이어_1"
	 xmlns="http://www.w3.org/2000/svg" xmlns:xlink="http://www.w3.org/1999/xlink" x="0px" y="0px" viewBox="0 0 512 512"
	 overflow="visible" xml:space="preserve">
<g>
	<g>
		<path fill="#00A7E1" d="M0,1066.7L0,1066.7c0.1-26.3,21.5-47.6,47.9-47.5l39.5,0.1c4.5,0,8.2,3.7,8.2,8.2l-0.1,39.5
			c-0.1,26.3-21.5,47.6-47.9,47.5h0C21.2,1114.5-0.1,1093,0,1066.7z"/>
		<g>
			<path fill="#FFFFFF" d="M79.7,1049.5c-0.5,4.9-5,8.5-9.9,8c-4.9-0.5-8.5-5-8-9.9c0.5-4.9,5-8.5,9.9-8
				C76.7,1040.1,80.2,1044.6,79.7,1049.5z"/>
			<path fill="#FFFFFF" d="M69.4,1067.6c-1.3-0.1-2.5-0.4-3.7-0.7c-0.7-0.2-1.4,0.3-1.4,1c-0.2,5-2.7,9.9-7.2,13
				c-6.9,4.7-16.4,3.5-21.9-2.7c-6.3-7.3-5.2-18.2,2.3-24.1c3.9-3,8.7-4.1,13.2-3.2c0.7,0.1,1.3-0.4,1.3-1.1c0-1,0-2.3,0.1-3.1
				c0.2-2.6,1-5.1,2.2-7.2c0.4-0.7,0-1.5-0.8-1.6c-8.5-1.6-17.6,0.4-24.8,6.5c-11.5,9.7-13.9,26.8-5.5,39.2
				c9.7,14.4,29.4,17.4,42.9,6.8c7.1-5.6,11-13.7,11.4-22.1c0-0.7-0.7-1.3-1.4-1.1C74,1067.6,71.8,1067.8,69.4,1067.6z"/>
		</g>
	</g>
	<g>
		<path fill="#373D41" d="M191.6,1056.3l-10,0v-25.2c0-1.3-0.7-2-1.9-2H173c-1.2,0-1.9,0.8-1.9,2v73.9c0,1.3,0.7,2,1.9,2h6.6
			c1.2,0,1.9-0.8,1.9-2l0-39.5h10c1.3,0,2-0.7,2-1.9v-5.3C193.7,1057.1,192.9,1056.3,191.6,1056.3z M181.5,1065.6
			C181.5,1065.6,181.5,1065.6,181.5,1065.6v-0.6V1065.6z"/>
		<path fill="#373D41" d="M165.7,1078.6c-14.1-7.7-16-20-16-31v-10.9c0-1.3-0.7-2-2-2h-6.8c-1.2,0-2,0.8-2,2v10.9
			c0,11-1.9,23.2-16,30.9c-0.6,0.3-1,0.7-1.1,1.2c-0.1,0.5-0.1,1.1,0.2,1.7l2,4.2c0.2,0.4,0.5,0.7,0.9,0.9c0.6,0.2,1.3,0.2,2-0.1
			c8.3-3.9,14.2-9.3,17.3-15.8c3,6.5,9,11.9,17.3,15.8c0.4,0.2,0.8,0.3,1.2,0.3c0.3,0,0.6,0,0.8-0.1c0.4-0.2,0.8-0.5,0.9-0.8l2-4.2
			C167.1,1080.3,166.8,1079.2,165.7,1078.6z"/>
		<path fill="#373D41" d="M264.1,1029.1h-6.6c-1.2,0-2,0.8-2,2v73.9c0,1.3,0.7,2,2,2h6.6c1.2,0,2-0.8,2-2v-73.9
			C266.1,1029.9,265.4,1029.1,264.1,1029.1z"/>
		<path fill="#373D41" d="M225.4,1034.4c-12.9,0-19.5,5.4-20.5,17c-0.6,6.3-0.6,12.6,0,18.8c1,11.6,7.6,17,20.5,17
			c12.9,0,19.4-5.4,20.5-17c0.6-6.2,0.6-12.6,0-18.8C244.9,1039.8,238.3,1034.4,225.4,1034.4z M235.1,1067.3
			c-0.7,7.4-1.9,10.8-9.7,10.8c-7.8,0-9-3.5-9.7-10.8c-0.4-4.4-0.4-8.7,0-13c0.7-7.4,1.9-10.8,9.7-10.8c7.8,0,9,3.5,9.7,10.8
			C235.5,1058.6,235.5,1062.9,235.1,1067.3z"/>
		<path fill="#373D41" d="M327.6,1075.6c-0.3-0.3-0.8-0.6-1.7-0.5c-8.4,0.7-17.4,1.1-26,1.1c-2,0-3.2-0.3-3.7-0.8
			c-0.6-0.6-0.6-1.6-0.6-3V1045c0-0.1,0-0.2,0-0.2c0,0,0.1,0,0.2,0h23.2c1.3,0,2-0.7,2-1.9v-5.1c0-1.2-0.8-1.9-2-1.9h-30.8
			c-2.3,0-3.4,1.1-3.4,3.5v35.2c0,6.8,4.6,10.9,12.2,10.9c10.9,0,21.2-1.3,26.7-2c0.9-0.1,1.6-0.2,2.3-0.3c1-0.2,2-0.4,2-2l0-4
			C328.1,1076.9,328.2,1076.1,327.6,1075.6z"/>
		<path fill="#373D41" d="M353.7,1056.3l-10,0v-25.2c0-1.3-0.7-2-2-2H335c-1.2,0-1.9,0.8-1.9,2v73.9c0,1.3,0.7,2,1.9,2h6.6
			c1.2,0,2-0.8,2-2l0-39.5h10c1.3,0,2-0.7,2-1.9v-5.3C355.7,1057.1,354.9,1056.3,353.7,1056.3z"/>
		<path fill="#373D41" d="M404.7,1039.8v-3.5c0-2.3-1.1-3.5-3.4-3.5h-31.2c-1.3,0-2,0.7-2,1.9v5.1c0,1.2,0.8,1.9,2,1.9H393
			c0.1,0,0.2,0,0.2,0c0.2,11.7-7.3,17.5-26,20.2c-0.5,0.1-1.2,0.2-1.6,0.8c-0.3,0.4-0.4,1-0.2,1.7l0.7,3.6c0.3,1.3,1,2,2.4,2
			c0.1,0,0.2,0,0.4,0C394,1067.6,404.7,1058.5,404.7,1039.8z"/>
		<path fill="#373D41" d="M407.8,1048.4h10.5c0.1,0,0.2,0,0.2,0v6.2c0,0.1,0,0.1,0,0.2H406c-1.3,0-2,0.7-2,2v5.1c0,1.2,0.8,2,2,2
			h12.3c0.1,0,0.2,0,0.2,0v6.9c0,1.3,0.7,2,1.9,2h6.5c1.2,0,1.9-0.8,1.9-2v-39.6c0-1.3-0.7-2-1.9-2h-6.5c-1.2,0-1.9,0.8-1.9,2v8
			c0,0.1,0,0.2,0,0.2h-10.8c-1.3,0-2,0.7-2,1.9v5.1C405.8,1047.7,406.5,1048.4,407.8,1048.4z"/>
		<path fill="#373D41" d="M404,1074.7c-15.3,0-24.6,4.5-25.6,12.3c-0.3,2.9-0.3,5,0,7.8l0,0c1,7.8,10.3,12.2,25.6,12.2
			c15.3,0,24.6-4.5,25.6-12.3c0.3-2.9,0.3-4.9,0-7.8C428.6,1079.1,419.3,1074.7,404,1074.7z M418.2,1093.3L418.2,1093.3
			c-0.6,3.5-5.2,5.1-14.2,5.1c-9,0-13.6-1.7-14.2-5.1c-0.2-1.4-0.2-3.3,0-4.7c0.6-3.4,5.2-5.1,14.2-5.1c9,0,13.6,1.7,14.2,5.1
			C418.4,1089.9,418.4,1091.9,418.2,1093.3z"/>
		<path fill="#373D41" d="M510.1,1029.1h-6.5c-1.2,0-2,0.8-2,2v73.9c0,1.3,0.7,2,2,2h6.5c1.2,0,1.9-0.8,1.9-2v-73.9
			C512,1029.9,511.3,1029.1,510.1,1029.1z"/>
		<path fill="#373D41" d="M495.1,1029.9h-6.4c-1.2,0-2,0.9-2,2.4v21.4c0,0.1,0,0.2,0,0.2h-8.4c-1.3,0-2,0.7-2,1.9v5.1
			c0,1.2,0.8,2,2,2h8.2c0.1,0,0.2,0,0.2,0v41.3c0,1.3,0.7,2,2,2h6.4c1.2,0,1.9-0.8,1.9-2V1032C497,1030.7,496.3,1029.9,495.1,1029.9
			z"/>
		<path fill="#373D41" d="M483.6,1079.1c-11.9-8-14.2-17.1-14.2-31.1v-2.8c0-0.2,0-0.3,0-0.3c0,0,0.1,0,0.2,0h10c1.3,0,2-0.7,2-1.9
			v-5.1c0-1.2-0.8-1.9-2-1.9h-31.4c-1.3,0-2,0.7-2,1.9v5.1c0,1.2,0.8,1.9,2,1.9h10c0.1,0,0.2,0,0.2,0c0,0,0,0.1,0,0.3v2.8
			c0,14-2.3,23.2-14.2,31.1c-0.5,0.3-0.8,0.7-0.9,1.2c-0.1,0.5,0,1,0.3,1.5l2.8,4.4c0.3,0.5,0.8,0.8,1.3,1c0.1,0,0.3,0,0.4,0
			c0.4,0,0.8-0.1,1.3-0.4c7.3-4.5,11.9-9.2,14.5-14.8c2.6,5.6,7.2,10.3,14.5,14.8c0.7,0.4,1.3,0.4,1.7,0.3c0.5-0.1,1-0.5,1.3-1
			l2.8-4.4c0.3-0.5,0.4-1,0.3-1.5C484.4,1079.8,484,1079.3,483.6,1079.1z"/>
	</g>
</g>
<g>
	<g>
		<path fill="#00A7E1" d="M0,1874L0,1874c0.1-26.3,21.5-47.5,47.8-47.5l39.4,0.1c4.5,0,8.2,3.7,8.2,8.2l-0.1,39.4
			c-0.1,26.3-21.5,47.5-47.8,47.5l0,0C21.1,1921.8-0.1,1900.4,0,1874z"/>
		<g>
			<path fill="#FFFFFF" d="M79.6,1856.9c-0.5,4.9-5,8.5-9.9,8c-4.9-0.5-8.5-5-8-9.9c0.5-4.9,5-8.5,9.9-8
				C76.5,1847.5,80.1,1852,79.6,1856.9z"/>
			<path fill="#FFFFFF" d="M69.3,1874.9c-1.3-0.1-2.5-0.4-3.7-0.7c-0.7-0.2-1.4,0.3-1.4,1c-0.2,5-2.7,9.8-7.2,12.9
				c-6.9,4.7-16.4,3.5-21.9-2.7c-6.3-7.2-5.2-18.2,2.3-24c3.9-3,8.7-4.1,13.2-3.2c0.7,0.1,1.3-0.4,1.3-1.1c0-1,0-2.3,0.1-3.1
				c0.2-2.6,1-5.1,2.2-7.2c0.4-0.7,0-1.5-0.8-1.6c-8.5-1.6-17.6,0.4-24.7,6.5c-11.5,9.7-13.9,26.7-5.5,39.2
				c9.7,14.4,29.4,17.3,42.8,6.8c7.1-5.5,11-13.7,11.4-22.1c0-0.7-0.7-1.3-1.4-1.1C73.9,1874.9,71.6,1875.1,69.3,1874.9z"/>
		</g>
	</g>
	<g>
		<path fill="#373D41" d="M469.1,1898.3c-0.1-0.9-1-1.4-1.9-1.2c-0.9,0.3-2,0.6-3.1,0.8c-1.8,0.4-3.6,0.5-5.5,0.5
			c-5,0-8.5-1.4-10.6-4.1c-2.1-2.7-3.2-6.4-3.2-11.1c0-4.9,1.1-8.6,3.3-11.3c2.2-2.7,5.5-4,9.7-4c1.8,0,3.5,0.2,5.1,0.5
			c1,0.2,1.9,0.5,2.8,0.8c0.8,0.3,1.7-0.2,1.9-1l1.6-6c0.2-0.7-0.2-1.5-0.9-1.8c-3.6-1.3-7.4-1.9-11.3-1.9c-3.6,0-6.8,0.6-9.7,1.9
			c-2.9,1.3-5.3,3-7.3,5.2c-2,2.2-3.6,4.8-4.6,7.9c-1.1,3-1.6,6.3-1.6,9.8c0,3.5,0.5,6.8,1.4,9.9c1,3,2.4,5.6,4.4,7.8
			c2,2.2,4.4,3.9,7.4,5.1c3,1.2,6.5,1.8,10.5,1.8c2.6,0,5.1-0.2,7.5-0.7c1.8-0.3,3.2-0.7,4.3-1.1c0.7-0.2,1.1-0.9,0.8-2.2
			L469.1,1898.3z"/>
		<path fill="#373D41" d="M159.5,1898.3c-0.1-0.9-1-1.4-1.9-1.2c-0.9,0.3-2,0.6-3.1,0.8c-1.8,0.4-3.6,0.5-5.5,0.5
			c-5,0-8.5-1.4-10.6-4.1c-2.1-2.7-3.2-6.4-3.2-11.1c0-4.9,1.1-8.6,3.3-11.3c2.2-2.7,5.5-4,9.7-4c1.8,0,3.5,0.2,5.1,0.5
			c1,0.2,1.9,0.5,2.8,0.8c0.8,0.3,1.7-0.2,1.9-1l1.6-6c0.2-0.7-0.2-1.5-0.9-1.8c-3.6-1.3-7.4-1.9-11.3-1.9c-3.6,0-6.8,0.6-9.7,1.9
			c-2.9,1.3-5.3,3-7.3,5.2c-2,2.2-3.6,4.8-4.6,7.9c-1.1,3-1.6,6.3-1.6,9.8c0,3.5,0.5,6.8,1.4,9.9c1,3,2.4,5.6,4.4,7.8
			c2,2.2,4.4,3.9,7.4,5.1c3,1.2,6.5,1.8,10.5,1.8c2.6,0,5.1-0.2,7.5-0.7c1.8-0.3,3.2-0.7,4.3-1.1c0.7-0.2,1.1-0.9,0.8-2.2
			L159.5,1898.3z"/>
		<path fill="#373D41" d="M267.3,1858.5c-2.8,0-5.5,0.5-8.1,1.6c-2.6,1.1-5,2.6-7,4.7c-2,2.1-3.7,4.7-4.9,7.8
			c-1.2,3.1-1.8,6.8-1.8,10.9c0,3.5,0.5,6.8,1.4,9.8c1,3,2.4,5.6,4.4,7.7c2,2.2,4.5,3.9,7.6,5.1c3.1,1.2,6.7,1.8,10.8,1.8
			c1.6,0,3.2-0.1,4.8-0.3c1.6-0.2,3-0.4,4.4-0.7c1.3-0.3,2.6-0.6,3.6-0.9c0.2-0.1,0.7-0.3,0.7-0.3l0,0c1.1-0.4,1.6-1.2,1.5-2.3
			l-0.1-0.5l-0.8-5.1c-0.1-0.9-1-1.4-1.9-1.2c-1,0.3-2.2,0.6-3.6,0.9c-2.2,0.5-4.6,0.7-7.2,0.7c-4.5,0-7.9-1-10.3-3.1
			c-2.4-2.1-3.7-5-4-8.8l29.3,0c1,0,1.8-0.8,1.8-1.8c0-0.9,0.1-2,0.1-2.3c0-8-1.8-14-5.4-18C278.9,1860.5,273.8,1858.5,267.3,1858.5
			z M256.8,1878.6c0.2-1.4,0.5-2.7,1-4.1c0.5-1.3,1.2-2.5,2-3.5c0.9-1,1.9-1.8,3.2-2.5c1.3-0.6,2.7-0.9,4.4-0.9c1.6,0,3,0.3,4.2,0.9
			c1.2,0.6,2.2,1.4,3,2.3c0.8,1,1.4,2.2,1.8,3.5c0.4,1.4,0.6,2.8,0.6,4.3H256.8z"/>
		<path fill="#373D41" d="M395.7,1864.7c-1.4-1.9-3.2-3.4-5.6-4.4c-2.4-1-5.3-1.6-9-1.6c-1.5,0-2.9,0.1-4.3,0.4
			c-1.4,0.3-2.7,0.7-4,1.1c-1.3,0.4-2.4,0.9-3.4,1.5c-1,0.5-1.9,1.1-2.5,1.5c-1.4-1.4-3.1-2.5-5.2-3.3c-2.1-0.8-4.7-1.3-8-1.3
			c-3.8,0-7.4,0.3-10.8,0.8c-1.9,0.3-3.5,0.6-4.9,0.9l0,0c0,0-0.3,0.1-0.4,0.1c-0.2,0-0.3,0.1-0.8,0.2c-1.3,0.4-2.1,1.6-2.1,3.1v0.2
			v1.3v36.9v0.9v1.6c0,1.3,0.9,2,2,2.1h1.7h0.4h2.7h0.4h1.7c1.2,0,2-0.8,2-2.1v-1.6v-0.9v-33.4c0.7-0.1,1.8-0.3,3.2-0.4
			c1.4-0.2,2.8-0.3,4-0.3c3.4,0,5.7,1.1,6.9,3.3c1.2,2.2,1.8,5.8,1.8,10.7v21.8c0,0,0,0,0,0v0.9c0,1.3,0.9,2,2,2.1h0.9h1.1h2.7h1.1
			h0.9c1.2,0,2-0.8,2-2.1v-2.5h0v-21.4c0-1.9-0.1-3.7-0.3-5.4c-0.2-1.7-0.5-3.3-1-4.8c0.8-0.5,2-1.1,3.5-1.7c1.6-0.6,3.2-0.9,5-0.9
			c3.4,0,5.7,1.1,6.9,3.3c1.2,2.2,1.8,5.8,1.8,10.7v21.8c0,0,0,0,0,0v0.9c0,1.3,0.9,2,2,2.1h0.9h1.1h2.7h1.1h0.9c1.2,0,2-0.8,2-2.1
			v-0.9v-1.6v-21.9c0-3.2-0.3-6.1-0.8-8.8C398,1868.9,397,1866.6,395.7,1864.7z"/>
		<path fill="#373D41" d="M417.7,1839.2c-1.9,0-3.5,0.6-4.8,1.8c-1.3,1.2-2,2.9-2,5c0,2,0.7,3.7,2,4.9c1.3,1.2,2.9,1.8,4.8,1.8
			c1.8,0,3.4-0.6,4.7-1.8c1.3-1.2,2-2.8,2-4.9c0-2.1-0.7-3.8-2-5C421,1839.8,419.5,1839.2,417.7,1839.2z"/>
		<path fill="#373D41" d="M511.2,1888.9c-0.5-1.5-1.4-2.8-2.6-4c-1.2-1.2-2.7-2.2-4.5-3.2c-1.8-0.9-4-1.9-6.6-2.8
			c-1.6-0.5-2.9-1.1-4-1.6c-1.1-0.5-2-1-2.6-1.5c-0.7-0.5-1.1-1.1-1.4-1.7c-0.3-0.6-0.4-1.3-0.4-2.1c0-1.3,0.6-2.5,1.7-3.2
			c1.4-0.9,3.3-1.3,5.8-1.3c2.5,0,4.6,0.2,6.5,0.7c1,0.2,1.9,0.5,2.6,0.7c1.1,0.3,2.2-0.3,2.4-1.3l1.1-5.1c0.2-0.9-0.3-1.9-1.3-2.2
			c-1.1-0.3-2.4-0.6-4-1c-2.5-0.5-5.2-0.8-7.9-0.8c-5.5,0-9.8,1.2-13,3.7c-3.2,2.5-4.8,5.9-4.8,10.2c0,2.2,0.3,4.1,1,5.6
			c0.7,1.5,1.6,2.8,2.8,3.9c1.2,1.1,2.6,2,4.3,2.8c1.7,0.8,3.5,1.6,5.4,2.3c3.2,1.2,5.6,2.3,7,3.3c1.4,1,2.1,2.3,2.1,3.9
			c0,1.7-0.7,2.9-2,3.6c-1.3,0.7-3.4,1-6.3,1c-2.9,0-5.4-0.3-7.7-0.9c-1.4-0.4-2.7-0.8-3.8-1.2c-1.1-0.4-2.2,0.3-2.4,1.4l-1.1,5.4
			c-0.2,0.9,0.3,1.8,1.2,2.1c1,0.3,2.2,0.7,3.8,1.1c2.5,0.7,5.9,1,10,1c6.2,0,10.9-1.2,14.3-3.5c3.3-2.3,5-5.7,5-10.2
			C512,1892.2,511.7,1890.4,511.2,1888.9z"/>
		<path fill="#373D41" d="M175.8,1839.2c-1.9,0-3.5,0.6-4.8,1.8c-1.3,1.2-2,2.9-2,5c0,2,0.7,3.7,2,4.9c1.3,1.2,2.9,1.8,4.8,1.8
			c1.8,0,3.4-0.6,4.7-1.8c1.3-1.2,2-2.8,2-4.9c0-2.1-0.7-3.8-2-5C179.2,1839.8,177.6,1839.2,175.8,1839.2z"/>
		<path fill="#373D41" d="M179.2,1859.7h-1.7h-0.4h-2.7h-0.4h-1.7c-1.2,0-2,0.8-2,2.1v1.6v0.9v37.9v0.9v1.6c0,1.3,0.9,2,2,2.1h1.7
			h0.4h2.7h0.4h1.7c1.2,0,2-0.8,2-2.1v-1.6v-0.9v-37.9v-0.9v-1.6C181.3,1860.4,180.4,1859.7,179.2,1859.7z"/>
		<path fill="#373D41" d="M421.1,1859.7h-1.7h-0.4h-2.7H416h-1.7c-1.2,0-2,0.8-2,2.1v1.6v0.9v37.9v0.9v1.6c0,1.3,0.9,2,2,2.1h1.7
			h0.4h2.7h0.4h1.7c1.2,0,2-0.8,2-2.1v-1.6v-0.9v-37.9v-0.9v-1.6C423.2,1860.4,422.3,1859.7,421.1,1859.7z"/>
		<path fill="#373D41" d="M234.6,1840.8c0-1.3-0.9-2-2-2.1h-1.3h-0.7h-2.7h-0.7h-1.3c-1.2,0-2,0.8-2,2.1v1.3v1.2v18
			c-1.3-0.7-2.8-1.3-4.5-1.8c-1.7-0.5-3.8-0.8-6-0.8c-3.4,0-6.3,0.6-8.9,1.8c-2.6,1.2-4.8,2.8-6.6,5c-1.8,2.2-3.2,4.8-4.1,7.8
			c-0.9,3-1.4,6.4-1.4,10.1c0,3.8,0.6,7.2,1.7,10.2c1.1,3,2.7,5.6,4.8,7.7c2.1,2.1,4.6,3.8,7.5,4.9c2.9,1.1,6.3,1.7,10,1.7
			c3.6,0,7-0.3,10.3-0.8c2.2-0.4,4.1-0.7,5.8-1.2c1.4-0.3,2.3-1.6,2.3-3v-60.9V1840.8z M223.7,1897.8c-0.8,0.2-1.8,0.3-3,0.5
			c-1.2,0.2-2.7,0.2-4.5,0.2c-4,0-7.2-1.4-9.5-4.1c-2.3-2.7-3.4-6.5-3.4-11.3c0-4.6,0.9-8.3,2.7-11c1.8-2.7,4.7-4.1,8.7-4.1
			c1.8,0,3.5,0.3,5.1,0.9c1.6,0.6,2.9,1.2,3.8,1.8V1897.8z"/>
		<path fill="#373D41" d="M325.3,1859.8c0,0-0.1,0-0.2-0.1c-0.1,0-0.4-0.1-0.4-0.1l0,0c0,0,0,0,0,0c-0.8-0.2-1.7-0.3-2.5-0.5
			c-1-0.2-1.9-0.3-2.9-0.4c-1-0.1-1.8-0.1-2.5-0.1c-3.8,0-7.3,0.3-10.5,1c-2,0.4-3.8,0.9-5.4,1.4c-1.5,0.4-2.5,1.8-2.5,3.3l0,38.6
			v1.6c0,1.3,0.9,2,2,2.1h1.7h0.4h2.7h0.4h1.7c1.2,0,2-0.8,2-2.1v-1.6v-0.9v-33.1c0.5-0.2,1.5-0.5,2.8-0.7c1.3-0.2,2.6-0.4,3.8-0.4
			c2.1,0,3.9,0.2,5.5,0.5c0.7,0.1,1.3,0.3,1.9,0.4c1,0.2,2-0.4,2.2-1.4l1-5l0.1-0.3C326.9,1861.3,326.5,1860.2,325.3,1859.8z"/>
	</g>
</g>
<g>
	<g>
		<path fill="#00A7E1" d="M661.4,988.2L661.4,988.2c0.3-69.5,56.8-125.7,126.4-125.5l104.2,0.4c12,0,21.7,9.8,21.6,21.8l-0.4,104.2
			c-0.3,69.5-56.8,125.7-126.4,125.5l0,0C717.3,1114.3,661.2,1057.8,661.4,988.2z"/>
		<g>
			<path fill="#FFFFFF" d="M871.8,942.9c-1.4,13-13.1,22.5-26.2,21.1c-13-1.4-22.5-13.1-21.1-26.2c1.4-13,13.1-22.5,26.2-21.1
				C863.8,918.1,873.2,929.8,871.8,942.9z"/>
			<path fill="#FFFFFF" d="M844.7,990.5c-3.4-0.3-6.7-1-9.9-1.9c-1.8-0.5-3.7,0.7-3.7,2.6c-0.6,13.2-7.1,26-19,34.2
				c-18.2,12.5-43.4,9.4-57.9-7.3c-16.7-19.1-13.7-48.1,6-63.5c10.3-8,23-10.7,34.9-8.6c1.8,0.3,3.4-1.1,3.4-2.9
				c0-2.6,0-6.1,0.2-8.2c0.6-6.9,2.7-13.4,5.7-19.1c0.9-1.7-0.1-3.9-2-4.3c-22.4-4.3-46.4,1.1-65.4,17.1
				c-30.3,25.6-36.6,70.7-14.4,103.6c25.7,38,77.7,45.8,113.3,18.1c18.8-14.7,29-36.2,30-58.3c0.1-2-1.7-3.5-3.6-3
				C856.7,990.6,850.8,991.1,844.7,990.5z"/>
		</g>
	</g>
	<g>
		<path fill="#373D41" d="M623.7,1204.4l-13.2,0v-33.1c0-1.7-1-2.7-2.6-2.7h-8.7c-1.6,0-2.6,1-2.6,2.7v97c0,1.7,1,2.7,2.6,2.7h8.7
			c1.6,0,2.6-1,2.6-2.7l0-51.8h13.2c1.7,0,2.7-1,2.7-2.6v-7C626.3,1205.3,625.3,1204.4,623.7,1204.4z M610.4,1216.5
			C610.4,1216.5,610.3,1216.5,610.4,1216.5v-0.8V1216.5z"/>
		<path fill="#373D41" d="M589.6,1233.6c-18.5-10.1-21-26.2-21-40.6v-14.4c0-1.7-1-2.7-2.6-2.7h-8.9c-1.6,0-2.6,1-2.6,2.7v14.4
			c0,14.4-2.5,30.5-21,40.6c-0.8,0.4-1.3,0.9-1.5,1.6c-0.2,0.7-0.1,1.5,0.3,2.3l2.6,5.5c0.2,0.5,0.6,0.9,1.2,1.1
			c0.8,0.3,1.7,0.2,2.6-0.2c10.8-5.1,18.6-12.2,22.7-20.7c4,8.5,11.8,15.6,22.7,20.7c0.5,0.2,1,0.3,1.5,0.3c0.4,0,0.7-0.1,1.1-0.2
			c0.6-0.2,1-0.6,1.2-1.1l2.7-5.5C591.6,1235.9,591.1,1234.4,589.6,1233.6z"/>
		<path fill="#373D41" d="M718.8,1168.7h-8.7c-1.6,0-2.6,1-2.6,2.7v97c0,1.7,1,2.7,2.6,2.7h8.7c1.6,0,2.6-1,2.6-2.7v-97
			C721.4,1169.7,720.4,1168.7,718.8,1168.7z"/>
		<path fill="#373D41" d="M668,1175.6c-17,0-25.5,7.1-26.9,22.3c-0.7,8.2-0.7,16.5,0,24.7c1.4,15.2,9.9,22.3,26.9,22.3
			c17,0,25.5-7.1,26.9-22.3c0.7-8.2,0.7-16.5,0-24.7C693.5,1182.6,685,1175.6,668,1175.6z M680.7,1218.8c-1,9.7-2.5,14.2-12.8,14.2
			c-10.2,0-11.8-4.6-12.8-14.2c-0.5-5.8-0.5-11.4,0-17.1c1-9.7,2.5-14.2,12.8-14.2c10.2,0,11.8,4.6,12.8,14.2
			C681.3,1207.4,681.3,1213,680.7,1218.8z"/>
		<path fill="#373D41" d="M802.1,1229.6c-0.4-0.4-1-0.8-2.2-0.7c-11,0.9-22.8,1.4-34.1,1.4c-2.6,0-4.2-0.3-4.9-1.1
			c-0.7-0.7-0.7-2.1-0.7-4v-35.8c0-0.2,0-0.3,0-0.3c0,0,0.1,0,0.3,0h30.4c1.7,0,2.7-1,2.7-2.6v-6.7c0-1.6-1-2.6-2.7-2.6h-40.4
			c-3,0-4.5,1.5-4.5,4.6v46.1c0,8.9,6,14.3,16.1,14.3c14.3,0,27.8-1.7,35-2.6c1.1-0.1,2.1-0.3,3-0.4c1.3-0.2,2.6-0.6,2.6-2.7l0-5.2
			C802.7,1231.4,802.8,1230.4,802.1,1229.6z"/>
		<path fill="#373D41" d="M836.3,1204.4l-13.2,0v-33.1c0-1.7-1-2.7-2.6-2.7h-8.7c-1.6,0-2.6,1-2.6,2.7v97c0,1.7,1,2.7,2.6,2.7h8.7
			c1.6,0,2.6-1,2.6-2.7l0-51.8h13.2c1.7,0,2.7-1,2.7-2.6v-7C838.9,1205.3,837.9,1204.4,836.3,1204.4z"/>
		<path fill="#373D41" d="M903.3,1182.7v-4.6c0-3.1-1.5-4.6-4.5-4.6h-40.9c-1.7,0-2.7,1-2.7,2.6v6.7c0,1.6,1,2.6,2.7,2.6h30
			c0.2,0,0.3,0,0.3,0c0.3,15.3-9.6,23-34.1,26.4c-0.7,0.1-1.6,0.3-2.1,1.1c-0.4,0.6-0.5,1.3-0.3,2.3l1,4.8c0.3,1.7,1.4,2.6,3.1,2.6
			c0.2,0,0.3,0,0.5,0C889.2,1219.2,903.3,1207.3,903.3,1182.7z"/>
		<path fill="#373D41" d="M907.3,1194h13.8c0.2,0,0.3,0,0.3,0v8.2c0,0.1,0,0.2,0,0.2H905c-1.7,0-2.7,1-2.7,2.6v6.7
			c0,1.6,1,2.6,2.7,2.6h16.2c0.2,0,0.3,0,0.3,0v9.1c0,1.7,1,2.7,2.6,2.7h8.5c1.6,0,2.6-1,2.6-2.7v-52c0-1.7-1-2.7-2.6-2.7H924
			c-1.6,0-2.6,1-2.6,2.7v10.5c0,0.1,0,0.2,0,0.3h-14.1c-1.7,0-2.7,1-2.7,2.6v6.7C904.6,1193,905.6,1194,907.3,1194z"/>
		<path fill="#373D41" d="M902.3,1228.4c-20.1,0-32.3,5.9-33.6,16.2c-0.4,3.8-0.4,6.5,0,10.3l0,0c1.3,10.2,13.5,16.1,33.6,16.1
			c20.1,0,32.3-5.9,33.6-16.2c0.4-3.8,0.4-6.4,0-10.2C934.6,1234.3,922.4,1228.4,902.3,1228.4z M920.9,1252.8L920.9,1252.8
			c-0.7,4.5-6.8,6.7-18.6,6.7c-11.8,0-17.9-2.2-18.6-6.7c-0.3-1.8-0.3-4.4,0-6.2c0.7-4.5,6.8-6.7,18.6-6.7c11.8,0,17.9,2.2,18.6,6.7
			C921.2,1248.5,921.2,1251,920.9,1252.8z"/>
		<path fill="#373D41" d="M1041.4,1168.7h-8.5c-1.6,0-2.6,1-2.6,2.7v97c0,1.7,1,2.7,2.6,2.7h8.5c1.6,0,2.6-1,2.6-2.7v-97
			C1044,1169.7,1043,1168.7,1041.4,1168.7z"/>
		<path fill="#373D41" d="M1021.8,1169.7h-8.4c-1.5,0-2.6,1.2-2.6,3.1v28.1c0,0.1,0,0.2,0,0.3h-11c-1.7,0-2.7,1-2.7,2.6v6.7
			c0,1.6,1,2.6,2.7,2.6h10.7c0.2,0,0.3,0,0.3,0v54.2c0,1.7,1,2.7,2.6,2.7h8.4c1.6,0,2.6-1,2.6-2.7v-94.8
			C1024.3,1170.7,1023.4,1169.7,1021.8,1169.7z"/>
		<path fill="#373D41" d="M1006.7,1234.2c-15.7-10.5-18.6-22.4-18.6-40.9v-3.7c0-0.3,0-0.4,0-0.4c0,0,0.1,0,0.3,0h13.2
			c1.7,0,2.7-1,2.7-2.6v-6.7c0-1.6-1-2.6-2.7-2.6h-41.1c-1.7,0-2.7,1-2.7,2.6v6.7c0,1.6,1,2.6,2.7,2.6h13.1c0.2,0,0.2,0,0.3,0
			c0,0,0.1,0.1,0.1,0.4v3.7c0,18.4-3,30.4-18.6,40.8c-0.6,0.4-1,0.9-1.2,1.6c-0.1,0.6,0,1.3,0.4,1.9l3.6,5.7c0.4,0.7,1,1.1,1.7,1.3
			c0.2,0,0.4,0.1,0.6,0.1c0.5,0,1-0.1,1.7-0.5c9.6-5.9,15.7-12.1,19-19.4c3.4,7.3,9.5,13.5,19,19.4c0.9,0.6,1.7,0.6,2.2,0.5
			c0.7-0.2,1.3-0.6,1.7-1.3l3.6-5.7c0.4-0.6,0.5-1.3,0.4-1.9C1007.7,1235.1,1007.3,1234.6,1006.7,1234.2z"/>
	</g>
</g>
<g>
	<g>
		<path fill="#373D41" d="M987.4,2054.8c-0.2-1.1-1.3-1.9-2.5-1.5c-1.2,0.4-2.6,0.7-4.1,1c-2.4,0.5-4.8,0.7-7.3,0.7
			c-6.6,0-11.3-1.8-14-5.4c-2.8-3.6-4.2-8.5-4.2-14.7c0-6.4,1.5-11.4,4.4-14.9c2.9-3.5,7.2-5.3,12.8-5.3c2.4,0,4.6,0.2,6.7,0.7
			c1.3,0.3,2.6,0.7,3.7,1c1.1,0.4,2.2-0.3,2.5-1.4l2.1-7.9c0.3-1-0.3-2-1.2-2.4c-4.7-1.7-9.7-2.6-15-2.6c-4.8,0-9,0.8-12.8,2.5
			c-3.8,1.7-7,4-9.7,6.9c-2.7,2.9-4.7,6.4-6.1,10.4c-1.4,4-2.1,8.3-2.1,12.9c0,4.7,0.6,9,1.9,13c1.3,4,3.2,7.4,5.8,10.3
			c2.6,2.9,5.8,5.2,9.7,6.8c3.9,1.6,8.5,2.4,13.8,2.4c3.4,0,6.7-0.3,9.9-1c2.3-0.5,4.2-1,5.7-1.5c0.9-0.3,1.4-1.2,1.1-2.9
			L987.4,2054.8z"/>
		<path fill="#373D41" d="M578.7,2054.8c-0.2-1.1-1.3-1.9-2.5-1.5c-1.2,0.4-2.6,0.7-4.1,1c-2.4,0.5-4.8,0.7-7.2,0.7
			c-6.6,0-11.3-1.8-14-5.4c-2.8-3.6-4.2-8.5-4.2-14.7c0-6.4,1.5-11.4,4.4-14.9c2.9-3.5,7.2-5.3,12.8-5.3c2.4,0,4.6,0.2,6.7,0.7
			c1.3,0.3,2.6,0.7,3.7,1c1.1,0.4,2.2-0.3,2.5-1.4l2.1-7.9c0.3-1-0.3-2-1.2-2.4c-4.7-1.7-9.7-2.6-15-2.6c-4.8,0-9,0.8-12.8,2.5
			c-3.8,1.7-7,4-9.7,6.9c-2.7,2.9-4.7,6.4-6.1,10.4c-1.4,4-2.1,8.3-2.1,12.9c0,4.7,0.6,9,1.9,13c1.3,4,3.2,7.4,5.8,10.3
			c2.6,2.9,5.8,5.2,9.7,6.8c3.9,1.6,8.5,2.4,13.8,2.4c3.4,0,6.7-0.3,9.9-1c2.3-0.5,4.2-1,5.7-1.5c0.9-0.3,1.4-1.2,1.1-2.9
			L578.7,2054.8z"/>
		<path fill="#373D41" d="M721.1,2002.2c-3.6,0-7.2,0.7-10.7,2.1c-3.5,1.4-6.6,3.4-9.3,6.2c-2.7,2.7-4.9,6.2-6.5,10.3
			c-1.6,4.1-2.4,8.9-2.4,14.4c0,4.7,0.6,9,1.9,12.9c1.3,3.9,3.2,7.3,5.8,10.2c2.6,2.9,5.9,5.2,10,6.8c4,1.6,8.8,2.4,14.3,2.4
			c2.1,0,4.2-0.1,6.3-0.4c2.1-0.2,4-0.5,5.8-0.9c1.8-0.4,3.4-0.8,4.8-1.2c0.3-0.1,1-0.3,1-0.3l0,0c1.4-0.5,2.2-1.6,1.9-3l-0.1-0.6
			l-1.1-6.7c-0.2-1.2-1.4-1.9-2.5-1.5c-1.3,0.4-2.9,0.8-4.7,1.2c-2.9,0.6-6.1,1-9.6,1c-5.9,0-10.5-1.4-13.6-4.1
			c-3.1-2.7-4.9-6.6-5.3-11.6h38.7c1.3,0,2.4-1,2.4-2.3c0.1-1.2,0.1-2.6,0.1-3c0-10.5-2.4-18.5-7.2-23.8
			C736.3,2004.9,729.7,2002.2,721.1,2002.2z M707.2,2028.7c0.2-1.8,0.7-3.6,1.3-5.3c0.6-1.7,1.5-3.3,2.7-4.6
			c1.1-1.3,2.6-2.4,4.2-3.3c1.7-0.8,3.6-1.2,5.8-1.2c2.1,0,4,0.4,5.5,1.1c1.5,0.8,2.9,1.8,3.9,3.1c1.1,1.3,1.9,2.9,2.4,4.6
			c0.6,1.8,0.8,3.7,0.8,5.6H707.2z"/>
		<path fill="#373D41" d="M890.5,2010.4c-1.8-2.5-4.2-4.4-7.4-5.8c-3.1-1.4-7.1-2.1-11.8-2.1c-1.9,0-3.9,0.2-5.7,0.6
			c-1.9,0.4-3.6,0.9-5.3,1.5c-1.7,0.6-3.2,1.2-4.5,2c-1.3,0.7-2.5,1.4-3.3,2c-1.8-1.8-4.1-3.3-6.8-4.4c-2.7-1.1-6.2-1.7-10.5-1.7
			c-5,0-9.7,0.4-14.2,1.1c-2.5,0.4-4.6,0.8-6.4,1.2l0,0c0,0-0.4,0.1-0.5,0.1c-0.2,0-0.5,0.1-1.1,0.3c-1.7,0.5-2.8,2.1-2.8,4.1v0.3
			v1.7v48.7v1.2v2.2c0,1.7,1.2,2.7,2.7,2.7h2.2h0.5h3.6h0.5h2.2c1.5,0,2.7-1,2.7-2.7v-2.2v-1.2v-44.1c1-0.2,2.4-0.4,4.3-0.6
			c1.9-0.2,3.6-0.4,5.2-0.4c4.4,0,7.5,1.4,9.1,4.3c1.6,2.9,2.4,7.6,2.4,14.1v28.8c0,0,0,0,0,0v1.2c0,1.7,1.2,2.7,2.7,2.7h1.2h1.5
			h3.6h1.5h1.2c1.5,0,2.7-1,2.7-2.7v-3.3h0v-28.3c0-2.5-0.1-4.9-0.4-7.1c-0.2-2.2-0.7-4.3-1.3-6.3c1-0.7,2.6-1.4,4.6-2.2
			c2.1-0.8,4.2-1.1,6.5-1.1c4.5,0,7.6,1.4,9.2,4.3c1.6,2.9,2.4,7.6,2.4,14.1v28.8c0,0,0,0,0,0v1.2c0,1.7,1.2,2.7,2.7,2.7h1.2h1.5
			h3.6h1.5h1.2c1.5,0,2.7-1,2.7-2.7v-1.2v-2.1V2031c0-4.2-0.3-8.1-1-11.6C893.5,2015.9,892.3,2012.9,890.5,2010.4z"/>
		<path fill="#373D41" d="M919.5,1976.7c-2.5,0-4.6,0.8-6.3,2.4c-1.7,1.6-2.6,3.8-2.6,6.5c0,2.7,0.9,4.8,2.6,6.4
			c1.7,1.6,3.8,2.4,6.3,2.4c2.4,0,4.4-0.8,6.2-2.4c1.7-1.6,2.6-3.7,2.6-6.4c0-2.8-0.9-5-2.6-6.5
			C924,1977.5,921.9,1976.7,919.5,1976.7z"/>
		<path fill="#373D41" d="M1042.9,2042.3c-0.7-2-1.8-3.7-3.4-5.3c-1.5-1.5-3.5-2.9-5.9-4.2c-2.4-1.2-5.3-2.5-8.7-3.7
			c-2.1-0.7-3.8-1.4-5.2-2.1c-1.4-0.7-2.6-1.3-3.4-2c-0.9-0.7-1.5-1.4-1.8-2.2c-0.4-0.8-0.5-1.7-0.5-2.8c0-1.7,0.8-3.4,2.3-4.3
			c1.9-1.2,4.4-1.8,7.6-1.8c3.2,0,6.1,0.3,8.6,0.9c1.3,0.3,2.5,0.6,3.5,1c1.4,0.5,2.9-0.3,3.2-1.8l1.5-6.7c0.3-1.3-0.4-2.5-1.7-2.9
			c-1.4-0.4-3.2-0.8-5.3-1.3c-3.3-0.7-6.8-1-10.5-1c-7.2,0-12.9,1.6-17.1,4.9c-4.2,3.3-6.3,7.8-6.3,13.5c0,2.9,0.5,5.4,1.4,7.4
			c0.9,2,2.2,3.7,3.7,5.2c1.6,1.4,3.5,2.7,5.6,3.7c2.2,1.1,4.6,2.1,7.2,3c4.3,1.6,7.3,3.1,9.2,4.4c1.9,1.3,2.8,3.1,2.8,5.1
			c0,2.2-0.9,3.8-2.6,4.7c-1.7,0.9-4.5,1.4-8.3,1.4c-3.8,0-7.2-0.4-10.2-1.2c-1.9-0.5-3.5-1-5.1-1.5c-1.4-0.5-2.9,0.4-3.2,1.8
			l-1.5,7.2c-0.3,1.2,0.4,2.4,1.6,2.8c1.3,0.4,3,0.9,5,1.5c3.3,0.9,7.7,1.4,13.2,1.4c8.2,0,14.4-1.5,18.8-4.6
			c4.4-3,6.6-7.5,6.6-13.5C1044,2046.6,1043.6,2044.2,1042.9,2042.3z"/>
		<path fill="#373D41" d="M600.3,1976.7c-2.5,0-4.6,0.8-6.3,2.4c-1.7,1.6-2.6,3.8-2.6,6.5c0,2.7,0.9,4.8,2.6,6.4
			c1.7,1.6,3.8,2.4,6.3,2.4c2.4,0,4.4-0.8,6.2-2.4c1.7-1.6,2.6-3.7,2.6-6.4c0-2.8-0.9-5-2.6-6.5
			C604.7,1977.5,602.6,1976.7,600.3,1976.7z"/>
		<path fill="#373D41" d="M604.8,2003.8h-2.2h-0.5h-3.6H598h-2.2c-1.5,0-2.7,1-2.7,2.7v2.2v1.2v50.1v1.2v2.2c0,1.7,1.2,2.7,2.7,2.7
			h2.2h0.5h3.6h0.5h2.2c1.5,0,2.7-1,2.7-2.7v-2.2v-1.2v-50.1v-1.2v-2.2C607.5,2004.8,606.3,2003.8,604.8,2003.8z"/>
		<path fill="#373D41" d="M924.1,2003.8h-2.2h-0.5h-3.6h-0.5h-2.2c-1.5,0-2.7,1-2.7,2.7v2.2v1.2v50.1v1.2v2.2c0,1.7,1.2,2.7,2.7,2.7
			h2.2h0.5h3.6h0.5h2.2c1.5,0,2.7-1,2.7-2.7v-2.2v-1.2v-50.1v-1.2v-2.2C926.7,2004.8,925.6,2003.8,924.1,2003.8z"/>
		<path fill="#373D41" d="M677.8,1978.8c0-1.7-1.2-2.7-2.7-2.7h-1.8h-0.9h-3.6h-0.9h-1.8c-1.5,0-2.7,1-2.7,2.7v1.7v1.6v23.8
			c-1.7-0.9-3.6-1.7-5.9-2.4c-2.3-0.7-5-1.1-8-1.1c-4.4,0-8.4,0.8-11.8,2.3c-3.4,1.5-6.3,3.7-8.7,6.6c-2.4,2.9-4.2,6.3-5.4,10.3
			c-1.2,4-1.8,8.5-1.8,13.4c0,5,0.7,9.5,2.2,13.5c1.5,4,3.6,7.4,6.3,10.2c2.7,2.8,6,5,9.9,6.5c3.9,1.5,8.3,2.3,13.2,2.3
			c4.8,0,9.3-0.4,13.6-1.1c2.9-0.5,5.4-1,7.7-1.5c1.8-0.4,3.1-2.1,3.1-4v-80.4V1978.8z M663.5,2054c-1,0.2-2.4,0.5-4,0.7
			c-1.6,0.2-3.6,0.3-5.9,0.3c-5.3,0-9.5-1.8-12.5-5.4c-3-3.6-4.5-8.6-4.5-14.9c0-6.1,1.2-10.9,3.6-14.5c2.4-3.6,6.2-5.3,11.5-5.3
			c2.4,0,4.6,0.4,6.7,1.1c2.1,0.8,3.8,1.6,5.1,2.4V2054z"/>
		<path fill="#373D41" d="M797.6,2004c0,0-0.2-0.1-0.2-0.1c-0.1,0-0.5-0.1-0.5-0.1l0,0c0,0-0.1,0-0.1,0c-1.1-0.2-2.2-0.5-3.3-0.6
			c-1.3-0.2-2.5-0.4-3.8-0.5c-1.3-0.1-2.4-0.2-3.3-0.2c-5.1,0-9.7,0.5-13.8,1.4c-2.7,0.6-5.1,1.2-7.2,1.8c-1.9,0.6-3.2,2.4-3.2,4.4
			v51v2.2c0,1.7,1.2,2.7,2.7,2.7h2.2h0.5h3.6h0.5h2.2c1.5,0,2.7-1,2.7-2.7v-2.2v-1.2v-43.7c0.7-0.2,2-0.6,3.7-0.9
			c1.8-0.3,3.5-0.5,5-0.5c2.8,0,5.2,0.2,7.3,0.7c0.9,0.2,1.8,0.4,2.5,0.6c1.3,0.3,2.7-0.5,2.9-1.9l1.4-6.6l0.1-0.4
			C799.7,2005.8,799.2,2004.4,797.6,2004z"/>
	</g>
	<g>
		<path fill="#00A7E1" d="M653.6,1807L653.6,1807c0.3-69.8,57.1-126.3,126.9-126l104.7,0.4c12,0,21.7,9.8,21.7,21.9l-0.4,104.7
			c-0.3,69.8-57.1,126.3-126.9,126h0C709.7,1933.7,653.3,1876.8,653.6,1807z"/>
		<g>
			<path fill="#FFFFFF" d="M864.9,1761.4c-1.4,13.1-13.2,22.6-26.3,21.2c-13.1-1.4-22.6-13.2-21.2-26.3
				c1.4-13.1,13.2-22.6,26.3-21.2C856.8,1736.6,866.3,1748.4,864.9,1761.4z"/>
			<path fill="#FFFFFF" d="M837.7,1809.3c-3.4-0.3-6.7-1-9.9-1.9c-1.8-0.6-3.7,0.7-3.8,2.7c-0.6,13.2-7.1,26.1-19,34.3
				c-18.2,12.6-43.6,9.4-58.1-7.3c-16.8-19.2-13.8-48.3,6-63.8c10.3-8.1,23.1-10.8,35-8.6c1.8,0.3,3.5-1.1,3.4-2.9
				c0-2.7,0-6.1,0.2-8.2c0.7-6.9,2.7-13.4,5.8-19.2c0.9-1.8-0.1-3.9-2-4.3c-22.5-4.3-46.6,1.1-65.7,17.2
				c-30.4,25.7-36.8,71-14.5,104c25.8,38.2,78,46,113.8,18.1c18.9-14.7,29.2-36.4,30.2-58.6c0.1-2-1.7-3.5-3.6-3
				C849.7,1809.4,843.8,1809.9,837.7,1809.3z"/>
		</g>
	</g>
</g>
<g>
	<path d="M1151.4,1019.3l-39.5-0.1c-26.3-0.1-47.8,21.2-47.9,47.5c-0.1,26.3,21.2,47.8,47.5,47.9h0c26.3,0.1,47.8-21.2,47.9-47.5
		l0.1-39.5C1159.6,1023,1155.9,1019.3,1151.4,1019.3z M1130.1,1090.2c-13.5,10.5-33.2,7.6-42.9-6.8c-8.4-12.5-6-29.5,5.5-39.2
		c7.2-6.1,16.3-8.1,24.8-6.5c0.7,0.1,1.1,0.9,0.8,1.6c-1.2,2.2-1.9,4.6-2.2,7.2c-0.1,0.8-0.1,2.1-0.1,3.1c0,0.7-0.6,1.2-1.3,1.1
		c-4.5-0.8-9.3,0.2-13.2,3.2c-7.5,5.8-8.6,16.8-2.3,24.1c5.5,6.3,15,7.5,21.9,2.7c4.5-3.1,7-8,7.2-13c0-0.7,0.7-1.2,1.4-1
		c1.2,0.4,2.4,0.6,3.7,0.7c2.3,0.2,4.5,0,6.7-0.5c0.7-0.2,1.4,0.4,1.4,1.1C1141.1,1076.5,1137.2,1084.7,1130.1,1090.2z
		 M1143.7,1049.5c-0.5,4.9-5,8.5-9.9,8c-4.9-0.5-8.5-5-8-9.9c0.5-4.9,5-8.5,9.9-8C1140.7,1040.1,1144.2,1044.6,1143.7,1049.5z"/>
	<g>
		<path d="M1255.6,1056.3l-10,0v-25.2c0-1.3-0.7-2-1.9-2h-6.6c-1.2,0-1.9,0.8-1.9,2v73.9c0,1.3,0.7,2,1.9,2h6.6c1.2,0,1.9-0.8,1.9-2
			l0-39.5h10c1.3,0,2-0.7,2-1.9v-5.3C1257.7,1057.1,1256.9,1056.3,1255.6,1056.3z M1245.5,1065.6
			C1245.5,1065.6,1245.5,1065.6,1245.5,1065.6v-0.6V1065.6z"/>
		<path d="M1229.7,1078.6c-14.1-7.7-16-20-16-31v-10.9c0-1.3-0.7-2-2-2h-6.8c-1.2,0-2,0.8-2,2v10.9c0,11-1.9,23.2-16,30.9
			c-0.6,0.3-1,0.7-1.1,1.2c-0.1,0.5-0.1,1.1,0.2,1.7l2,4.2c0.2,0.4,0.5,0.7,0.9,0.9c0.6,0.2,1.3,0.2,2-0.1
			c8.3-3.9,14.2-9.3,17.3-15.8c3,6.5,9,11.9,17.3,15.8c0.4,0.2,0.8,0.3,1.2,0.3c0.3,0,0.6,0,0.8-0.1c0.4-0.2,0.8-0.5,0.9-0.8l2-4.2
			C1231.1,1080.3,1230.8,1079.2,1229.7,1078.6z"/>
		<path d="M1328.1,1029.1h-6.6c-1.2,0-2,0.8-2,2v73.9c0,1.3,0.7,2,2,2h6.6c1.2,0,2-0.8,2-2v-73.9
			C1330.1,1029.9,1329.4,1029.1,1328.1,1029.1z"/>
		<path d="M1289.4,1034.4c-12.9,0-19.5,5.4-20.5,17c-0.6,6.3-0.6,12.6,0,18.8c1,11.6,7.6,17,20.5,17c12.9,0,19.4-5.4,20.5-17
			c0.6-6.2,0.6-12.6,0-18.8C1308.9,1039.8,1302.3,1034.4,1289.4,1034.4z M1299.1,1067.3c-0.7,7.4-1.9,10.8-9.7,10.8
			c-7.8,0-9-3.5-9.7-10.8c-0.4-4.4-0.4-8.7,0-13c0.7-7.4,1.9-10.8,9.7-10.8c7.8,0,9,3.5,9.7,10.8
			C1299.5,1058.6,1299.5,1062.9,1299.1,1067.3z"/>
		<path d="M1391.6,1075.6c-0.3-0.3-0.8-0.6-1.7-0.5c-8.4,0.7-17.4,1.1-26,1.1c-2,0-3.2-0.3-3.7-0.8c-0.6-0.6-0.6-1.6-0.6-3V1045
			c0-0.1,0-0.2,0-0.2c0,0,0.1,0,0.2,0h23.2c1.3,0,2-0.7,2-1.9v-5.1c0-1.2-0.8-1.9-2-1.9h-30.8c-2.3,0-3.4,1.1-3.4,3.5v35.2
			c0,6.8,4.6,10.9,12.2,10.9c10.9,0,21.2-1.3,26.7-2c0.9-0.1,1.6-0.2,2.3-0.3c1-0.2,2-0.4,2-2l0-4
			C1392.1,1076.9,1392.2,1076.1,1391.6,1075.6z"/>
		<path d="M1417.7,1056.3l-10,0v-25.2c0-1.3-0.7-2-2-2h-6.6c-1.2,0-1.9,0.8-1.9,2v73.9c0,1.3,0.7,2,1.9,2h6.6c1.2,0,2-0.8,2-2
			l0-39.5h10c1.3,0,2-0.7,2-1.9v-5.3C1419.7,1057.1,1418.9,1056.3,1417.7,1056.3z"/>
		<path d="M1468.7,1039.8v-3.5c0-2.3-1.1-3.5-3.4-3.5h-31.2c-1.3,0-2,0.7-2,1.9v5.1c0,1.2,0.8,1.9,2,1.9h22.9c0.1,0,0.2,0,0.2,0
			c0.2,11.7-7.3,17.5-26,20.2c-0.5,0.1-1.2,0.2-1.6,0.8c-0.3,0.4-0.4,1-0.2,1.7l0.7,3.6c0.3,1.3,1,2,2.4,2c0.1,0,0.2,0,0.4,0
			C1458,1067.6,1468.7,1058.5,1468.7,1039.8z"/>
		<path d="M1471.8,1048.4h10.5c0.1,0,0.2,0,0.2,0v6.2c0,0.1,0,0.1,0,0.2H1470c-1.3,0-2,0.7-2,2v5.1c0,1.2,0.8,2,2,2h12.3
			c0.1,0,0.2,0,0.2,0v6.9c0,1.3,0.7,2,1.9,2h6.5c1.2,0,1.9-0.8,1.9-2v-39.6c0-1.3-0.7-2-1.9-2h-6.5c-1.2,0-1.9,0.8-1.9,2v8
			c0,0.1,0,0.2,0,0.2h-10.8c-1.3,0-2,0.7-2,1.9v5.1C1469.8,1047.7,1470.5,1048.4,1471.8,1048.4z"/>
		<path d="M1468,1074.7c-15.3,0-24.6,4.5-25.6,12.3c-0.3,2.9-0.3,5,0,7.8l0,0c1,7.8,10.3,12.2,25.6,12.2c15.3,0,24.6-4.5,25.6-12.3
			c0.3-2.9,0.3-4.9,0-7.8C1492.6,1079.1,1483.3,1074.7,1468,1074.7z M1482.2,1093.3L1482.2,1093.3c-0.6,3.5-5.2,5.1-14.2,5.1
			c-9,0-13.6-1.7-14.2-5.1c-0.2-1.4-0.2-3.3,0-4.7c0.6-3.4,5.2-5.1,14.2-5.1c9,0,13.6,1.7,14.2,5.1
			C1482.4,1089.9,1482.4,1091.9,1482.2,1093.3z"/>
		<path d="M1574.1,1029.1h-6.5c-1.2,0-2,0.8-2,2v73.9c0,1.3,0.7,2,2,2h6.5c1.2,0,1.9-0.8,1.9-2v-73.9
			C1576,1029.9,1575.3,1029.1,1574.1,1029.1z"/>
		<path d="M1559.1,1029.9h-6.4c-1.2,0-2,0.9-2,2.4v21.4c0,0.1,0,0.2,0,0.2h-8.4c-1.3,0-2,0.7-2,1.9v5.1c0,1.2,0.8,2,2,2h8.2
			c0.1,0,0.2,0,0.2,0v41.3c0,1.3,0.7,2,2,2h6.4c1.2,0,1.9-0.8,1.9-2V1032C1561,1030.7,1560.3,1029.9,1559.1,1029.9z"/>
		<path d="M1547.6,1079.1c-11.9-8-14.2-17.1-14.2-31.1v-2.8c0-0.2,0-0.3,0-0.3c0,0,0.1,0,0.2,0h10c1.3,0,2-0.7,2-1.9v-5.1
			c0-1.2-0.8-1.9-2-1.9h-31.4c-1.3,0-2,0.7-2,1.9v5.1c0,1.2,0.8,1.9,2,1.9h10c0.1,0,0.2,0,0.2,0c0,0,0,0.1,0,0.3v2.8
			c0,14-2.3,23.2-14.2,31.1c-0.5,0.3-0.8,0.7-0.9,1.2c-0.1,0.5,0,1,0.3,1.5l2.8,4.4c0.3,0.5,0.8,0.8,1.3,1c0.1,0,0.3,0,0.4,0
			c0.4,0,0.8-0.1,1.3-0.4c7.3-4.5,11.9-9.2,14.5-14.8c2.6,5.6,7.2,10.3,14.5,14.8c0.7,0.4,1.3,0.4,1.7,0.3c0.5-0.1,1-0.5,1.3-1
			l2.8-4.4c0.3-0.5,0.4-1,0.3-1.5C1548.4,1079.8,1548,1079.3,1547.6,1079.1z"/>
	</g>
</g>
<g>
	<path d="M1151.2,1826.7l-39.4-0.1c-26.3-0.1-47.7,21.1-47.8,47.5v0c-0.1,26.3,21.1,47.7,47.5,47.8c26.3,0.1,47.7-21.1,47.8-47.5
		l0.1-39.4C1159.4,1830.4,1155.8,1826.8,1151.2,1826.7z M1130,1897.6c-13.5,10.5-33.1,7.6-42.8-6.8c-8.4-12.4-6-29.5,5.5-39.2
		c7.2-6,16.3-8.1,24.7-6.5c0.7,0.1,1.1,0.9,0.8,1.6c-1.2,2.2-1.9,4.6-2.2,7.2c-0.1,0.8-0.1,2.1-0.1,3.1c0,0.7-0.6,1.2-1.3,1.1
		c-4.5-0.8-9.3,0.2-13.2,3.2c-7.5,5.8-8.6,16.8-2.3,24c5.5,6.3,15,7.5,21.9,2.7c4.5-3.1,6.9-7.9,7.2-12.9c0-0.7,0.7-1.2,1.4-1
		c1.2,0.4,2.4,0.6,3.7,0.7c2.3,0.2,4.5,0,6.7-0.5c0.7-0.2,1.4,0.4,1.4,1.1C1141,1883.9,1137.1,1892,1130,1897.6z M1143.6,1856.9
		c-0.5,4.9-5,8.5-9.9,8c-4.9-0.5-8.5-5-8-9.9c0.5-4.9,5-8.5,9.9-8S1144.1,1852,1143.6,1856.9z"/>
	<g>
		<path d="M1533.1,1898.3c-0.1-0.9-1-1.4-1.9-1.2c-0.9,0.3-2,0.6-3.1,0.8c-1.8,0.4-3.6,0.5-5.5,0.5c-5,0-8.5-1.4-10.6-4.1
			c-2.1-2.7-3.2-6.4-3.2-11.1c0-4.9,1.1-8.6,3.3-11.3c2.2-2.7,5.5-4,9.7-4c1.8,0,3.5,0.2,5.1,0.5c1,0.2,1.9,0.5,2.8,0.8
			c0.8,0.3,1.7-0.2,1.9-1l1.6-6c0.2-0.7-0.2-1.5-0.9-1.8c-3.6-1.3-7.4-1.9-11.3-1.9c-3.6,0-6.8,0.6-9.7,1.9c-2.9,1.3-5.3,3-7.3,5.2
			c-2,2.2-3.6,4.8-4.6,7.9c-1.1,3-1.6,6.3-1.6,9.8c0,3.5,0.5,6.8,1.4,9.9c1,3,2.4,5.6,4.4,7.8c2,2.2,4.4,3.9,7.4,5.1
			c3,1.2,6.5,1.8,10.5,1.8c2.6,0,5.1-0.2,7.5-0.7c1.8-0.3,3.2-0.7,4.3-1.1c0.7-0.2,1.1-0.9,0.8-2.2L1533.1,1898.3z"/>
		<path d="M1223.5,1898.3c-0.1-0.9-1-1.4-1.9-1.2c-0.9,0.3-2,0.6-3.1,0.8c-1.8,0.4-3.6,0.5-5.5,0.5c-5,0-8.5-1.4-10.6-4.1
			c-2.1-2.7-3.2-6.4-3.2-11.1c0-4.9,1.1-8.6,3.3-11.3c2.2-2.7,5.5-4,9.7-4c1.8,0,3.5,0.2,5.1,0.5c1,0.2,1.9,0.5,2.8,0.8
			c0.8,0.3,1.7-0.2,1.9-1l1.6-6c0.2-0.7-0.2-1.5-0.9-1.8c-3.6-1.3-7.4-1.9-11.3-1.9c-3.6,0-6.8,0.6-9.7,1.9c-2.9,1.3-5.3,3-7.3,5.2
			c-2,2.2-3.6,4.8-4.6,7.9c-1.1,3-1.6,6.3-1.6,9.8c0,3.5,0.5,6.8,1.4,9.9c1,3,2.4,5.6,4.4,7.8c2,2.2,4.4,3.9,7.4,5.1
			c3,1.2,6.5,1.8,10.5,1.8c2.6,0,5.1-0.2,7.5-0.7c1.8-0.3,3.2-0.7,4.3-1.1c0.7-0.2,1.1-0.9,0.8-2.2L1223.5,1898.3z"/>
		<path d="M1331.3,1858.5c-2.8,0-5.5,0.5-8.1,1.6c-2.6,1.1-5,2.6-7,4.7c-2,2.1-3.7,4.7-4.9,7.8c-1.2,3.1-1.8,6.8-1.8,10.9
			c0,3.5,0.5,6.8,1.4,9.8c1,3,2.4,5.6,4.4,7.7c2,2.2,4.5,3.9,7.6,5.1c3.1,1.2,6.7,1.8,10.8,1.8c1.6,0,3.2-0.1,4.8-0.3
			c1.6-0.2,3-0.4,4.4-0.7c1.3-0.3,2.6-0.6,3.6-0.9c0.2-0.1,0.7-0.3,0.7-0.3l0,0c1.1-0.4,1.6-1.2,1.5-2.3l-0.1-0.5l-0.8-5.1
			c-0.1-0.9-1-1.4-1.9-1.2c-1,0.3-2.2,0.6-3.6,0.9c-2.2,0.5-4.6,0.7-7.2,0.7c-4.5,0-7.9-1-10.3-3.1c-2.4-2.1-3.7-5-4-8.8l29.3,0
			c1,0,1.8-0.8,1.8-1.8c0-0.9,0.1-2,0.1-2.3c0-8-1.8-14-5.4-18C1342.9,1860.5,1337.8,1858.5,1331.3,1858.5z M1320.8,1878.6
			c0.2-1.4,0.5-2.7,1-4.1c0.5-1.3,1.2-2.5,2-3.5c0.9-1,1.9-1.8,3.2-2.5c1.3-0.6,2.7-0.9,4.4-0.9c1.6,0,3,0.3,4.2,0.9
			c1.2,0.6,2.2,1.4,3,2.3c0.8,1,1.4,2.2,1.8,3.5c0.4,1.4,0.6,2.8,0.6,4.3H1320.8z"/>
		<path d="M1459.7,1864.7c-1.4-1.9-3.2-3.4-5.6-4.4c-2.4-1-5.3-1.6-9-1.6c-1.5,0-2.9,0.1-4.3,0.4c-1.4,0.3-2.7,0.7-4,1.1
			c-1.3,0.4-2.4,0.9-3.4,1.5c-1,0.5-1.9,1.1-2.5,1.5c-1.4-1.4-3.1-2.5-5.2-3.3c-2.1-0.8-4.7-1.3-8-1.3c-3.8,0-7.4,0.3-10.8,0.8
			c-1.9,0.3-3.5,0.6-4.9,0.9l0,0c0,0-0.3,0.1-0.4,0.1c-0.2,0-0.3,0.1-0.8,0.2c-1.3,0.4-2.1,1.6-2.1,3.1v0.2v1.3v36.9v0.9v1.6
			c0,1.3,0.9,2,2,2.1h1.7h0.4h2.7h0.4h1.7c1.2,0,2-0.8,2-2.1v-1.6v-0.9v-33.4c0.7-0.1,1.8-0.3,3.2-0.4c1.4-0.2,2.8-0.3,4-0.3
			c3.4,0,5.7,1.1,6.9,3.3c1.2,2.2,1.8,5.8,1.8,10.7v21.8c0,0,0,0,0,0v0.9c0,1.3,0.9,2,2,2.1h0.9h1.1h2.7h1.1h0.9c1.2,0,2-0.8,2-2.1
			v-2.5h0v-21.4c0-1.9-0.1-3.7-0.3-5.4c-0.2-1.7-0.5-3.3-1-4.8c0.8-0.5,1.9-1.1,3.5-1.7c1.6-0.6,3.2-0.9,5-0.9
			c3.4,0,5.7,1.1,6.9,3.3c1.2,2.2,1.8,5.8,1.8,10.7v21.8c0,0,0,0,0,0v0.9c0,1.3,0.9,2,2,2.1h0.9h1.1h2.7h1.1h0.9c1.2,0,2-0.8,2-2.1
			v-0.9v-1.6v-21.9c0-3.2-0.3-6.1-0.8-8.8C1462,1868.9,1461,1866.6,1459.7,1864.7z"/>
		<path d="M1481.7,1839.2c-1.9,0-3.5,0.6-4.8,1.8c-1.3,1.2-2,2.9-2,5c0,2,0.7,3.7,2,4.9c1.3,1.2,2.9,1.8,4.8,1.8
			c1.8,0,3.4-0.6,4.7-1.8c1.3-1.2,2-2.8,2-4.9c0-2.1-0.7-3.8-2-5C1485,1839.8,1483.5,1839.2,1481.7,1839.2z"/>
		<path d="M1575.2,1888.9c-0.5-1.5-1.4-2.8-2.6-4c-1.2-1.2-2.7-2.2-4.5-3.2c-1.8-0.9-4-1.9-6.6-2.8c-1.6-0.5-2.9-1.1-4-1.6
			c-1.1-0.5-2-1-2.6-1.5c-0.7-0.5-1.1-1.1-1.4-1.7c-0.3-0.6-0.4-1.3-0.4-2.1c0-1.3,0.6-2.5,1.7-3.2c1.4-0.9,3.3-1.3,5.8-1.3
			c2.5,0,4.6,0.2,6.5,0.7c1,0.2,1.9,0.5,2.6,0.7c1.1,0.3,2.2-0.3,2.4-1.3l1.1-5.1c0.2-0.9-0.3-1.9-1.3-2.2c-1.1-0.3-2.4-0.6-4-1
			c-2.5-0.5-5.2-0.8-7.9-0.8c-5.5,0-9.8,1.2-13,3.7c-3.2,2.5-4.8,5.9-4.8,10.2c0,2.2,0.3,4.1,1,5.6c0.7,1.5,1.6,2.8,2.8,3.9
			c1.2,1.1,2.6,2,4.3,2.8c1.7,0.8,3.5,1.6,5.4,2.3c3.2,1.2,5.6,2.3,7,3.3c1.4,1,2.1,2.3,2.1,3.9c0,1.7-0.7,2.9-2,3.6
			c-1.3,0.7-3.4,1-6.3,1c-2.9,0-5.4-0.3-7.7-0.9c-1.4-0.4-2.7-0.8-3.8-1.2c-1.1-0.4-2.2,0.3-2.4,1.4l-1.1,5.4
			c-0.2,0.9,0.3,1.8,1.2,2.1c1,0.3,2.2,0.7,3.8,1.1c2.5,0.7,5.9,1,10,1c6.2,0,10.9-1.2,14.3-3.5c3.3-2.3,5-5.7,5-10.2
			C1576,1892.2,1575.7,1890.4,1575.2,1888.9z"/>
		<path d="M1239.8,1839.2c-1.9,0-3.5,0.6-4.8,1.8c-1.3,1.2-2,2.9-2,5c0,2,0.7,3.7,2,4.9c1.3,1.2,2.9,1.8,4.8,1.8
			c1.8,0,3.4-0.6,4.7-1.8c1.3-1.2,2-2.8,2-4.9c0-2.1-0.7-3.8-2-5C1243.2,1839.8,1241.6,1839.2,1239.8,1839.2z"/>
		<path d="M1243.2,1859.7h-1.7h-0.4h-2.7h-0.4h-1.7c-1.2,0-2,0.8-2,2.1v1.6v0.9v37.9v0.9v1.6c0,1.3,0.9,2,2,2.1h1.7h0.4h2.7h0.4h1.7
			c1.2,0,2-0.8,2-2.1v-1.6v-0.9v-37.9v-0.9v-1.6C1245.3,1860.4,1244.4,1859.7,1243.2,1859.7z"/>
		<path d="M1485.1,1859.7h-1.7h-0.4h-2.7h-0.4h-1.7c-1.2,0-2,0.8-2,2.1v1.6v0.9v37.9v0.9v1.6c0,1.3,0.9,2,2,2.1h1.7h0.4h2.7h0.4h1.7
			c1.2,0,2-0.8,2-2.1v-1.6v-0.9v-37.9v-0.9v-1.6C1487.2,1860.4,1486.3,1859.7,1485.1,1859.7z"/>
		<path d="M1298.6,1840.8c0-1.3-0.9-2-2-2.1h-1.3h-0.7h-2.7h-0.7h-1.3c-1.2,0-2,0.8-2,2.1v1.3v1.2v18c-1.3-0.7-2.8-1.3-4.5-1.8
			c-1.7-0.5-3.8-0.8-6-0.8c-3.4,0-6.3,0.6-8.9,1.8c-2.6,1.2-4.8,2.8-6.6,5c-1.8,2.2-3.2,4.8-4.1,7.8c-0.9,3-1.4,6.4-1.4,10.1
			c0,3.8,0.6,7.2,1.7,10.2c1.1,3,2.7,5.6,4.8,7.7c2.1,2.1,4.6,3.8,7.5,4.9s6.3,1.7,10,1.7c3.6,0,7-0.3,10.3-0.8
			c2.2-0.4,4.1-0.7,5.8-1.2c1.4-0.3,2.3-1.6,2.3-3v-60.9V1840.8z M1287.7,1897.8c-0.8,0.2-1.8,0.3-3,0.5c-1.2,0.2-2.7,0.2-4.5,0.2
			c-4,0-7.2-1.4-9.5-4.1c-2.3-2.7-3.4-6.5-3.4-11.3c0-4.6,0.9-8.3,2.7-11c1.8-2.7,4.7-4,8.7-4c1.8,0,3.5,0.3,5.1,0.9
			c1.6,0.6,2.9,1.2,3.8,1.8V1897.8z"/>
		<path d="M1389.3,1859.8c0,0-0.1,0-0.2-0.1c-0.1,0-0.4-0.1-0.4-0.1l0,0c0,0,0,0,0,0c-0.8-0.2-1.7-0.3-2.5-0.5
			c-1-0.2-1.9-0.3-2.9-0.4c-1-0.1-1.8-0.1-2.5-0.1c-3.8,0-7.3,0.3-10.5,1c-2,0.4-3.8,0.9-5.4,1.4c-1.5,0.4-2.5,1.8-2.5,3.3l0,38.6
			v1.6c0,1.3,0.9,2,2,2.1h1.7h0.4h2.7h0.4h1.7c1.2,0,2-0.8,2-2.1v-1.6v-0.9v-33.1c0.5-0.2,1.5-0.5,2.8-0.7c1.3-0.2,2.6-0.4,3.8-0.4
			c2.1,0,3.9,0.2,5.5,0.5c0.7,0.1,1.3,0.3,1.9,0.4c1,0.2,2-0.4,2.2-1.4l1-5l0.1-0.3C1390.9,1861.3,1390.5,1860.2,1389.3,1859.8z"/>
	</g>
</g>
<g>
	<path d="M1956,863.1l-104.2-0.4c-69.5-0.3-126.1,55.9-126.4,125.5s55.9,126.1,125.5,126.4c69.5,0.3,126.1-55.9,126.4-125.5
		l0.4-104.2C1977.7,872.9,1968,863.2,1956,863.1z M1899.9,1050.4c-35.6,27.8-87.6,20-113.3-18.1c-22.2-32.9-15.9-78,14.4-103.6
		c18.9-16,43-21.4,65.4-17.1c1.9,0.4,3,2.5,2,4.3c-3.1,5.8-5.1,12.2-5.7,19.1c-0.2,2.1-0.2,5.5-0.2,8.2c0,1.8-1.6,3.2-3.4,2.9
		c-11.9-2.2-24.6,0.6-34.9,8.6c-19.8,15.4-22.7,44.4-6,63.5c14.5,16.6,39.7,19.8,57.9,7.3c11.9-8.2,18.4-21,19-34.2
		c0.1-1.9,1.9-3.2,3.7-2.6c3.2,0.9,6.5,1.6,9.9,1.9c6.1,0.6,12,0,17.6-1.4c1.9-0.5,3.7,1,3.6,3
		C1929,1014.2,1918.7,1035.7,1899.9,1050.4z M1935.8,942.9c-1.4,13-13.1,22.5-26.2,21.1c-13-1.4-22.5-13.1-21.1-26.2
		c1.4-13,13.1-22.5,26.2-21.1C1927.8,918.1,1937.2,929.8,1935.8,942.9z"/>
	<g>
		<path d="M1687.7,1204.4l-13.2,0v-33.1c0-1.7-1-2.7-2.6-2.7h-8.7c-1.6,0-2.6,1-2.6,2.7v97c0,1.7,1,2.7,2.6,2.7h8.7
			c1.6,0,2.6-1,2.6-2.7l0-51.8h13.2c1.7,0,2.7-1,2.7-2.6v-7C1690.3,1205.3,1689.3,1204.4,1687.7,1204.4z M1674.4,1216.5
			C1674.4,1216.5,1674.3,1216.5,1674.4,1216.5v-0.8V1216.5z"/>
		<path d="M1653.6,1233.6c-18.5-10.1-21-26.2-21-40.6v-14.4c0-1.7-1-2.7-2.6-2.7h-8.9c-1.6,0-2.6,1-2.6,2.7v14.4
			c0,14.4-2.5,30.5-21,40.6c-0.8,0.4-1.3,0.9-1.5,1.6c-0.2,0.7-0.1,1.5,0.3,2.3l2.6,5.5c0.2,0.5,0.6,0.9,1.2,1.1
			c0.8,0.3,1.7,0.2,2.6-0.2c10.8-5.1,18.6-12.2,22.7-20.7c4,8.5,11.8,15.6,22.7,20.7c0.5,0.2,1,0.3,1.5,0.3c0.4,0,0.7-0.1,1.1-0.2
			c0.6-0.2,1-0.6,1.2-1.1l2.7-5.5C1655.6,1235.9,1655.1,1234.4,1653.6,1233.6z"/>
		<path d="M1782.8,1168.7h-8.7c-1.6,0-2.6,1-2.6,2.7v97c0,1.7,1,2.7,2.6,2.7h8.7c1.6,0,2.6-1,2.6-2.7v-97
			C1785.4,1169.7,1784.4,1168.7,1782.8,1168.7z"/>
		<path d="M1732,1175.6c-17,0-25.5,7.1-26.9,22.3c-0.7,8.2-0.7,16.5,0,24.7c1.4,15.2,9.9,22.3,26.9,22.3c17,0,25.5-7.1,26.9-22.3
			c0.7-8.2,0.7-16.5,0-24.7C1757.5,1182.6,1749,1175.6,1732,1175.6z M1744.7,1218.8c-1,9.7-2.5,14.2-12.8,14.2
			c-10.2,0-11.8-4.6-12.8-14.2c-0.5-5.8-0.5-11.4,0-17.1c1-9.7,2.5-14.2,12.8-14.2c10.2,0,11.8,4.6,12.8,14.2
			C1745.3,1207.4,1745.3,1213,1744.7,1218.8z"/>
		<path d="M1866.1,1229.6c-0.4-0.4-1-0.8-2.2-0.7c-11,0.9-22.8,1.4-34.1,1.4c-2.6,0-4.2-0.3-4.9-1.1c-0.7-0.7-0.7-2.1-0.7-4v-35.8
			c0-0.2,0-0.3,0-0.3c0,0,0.1,0,0.3,0h30.4c1.7,0,2.7-1,2.7-2.6v-6.7c0-1.6-1-2.6-2.7-2.6h-40.4c-3,0-4.5,1.5-4.5,4.6v46.1
			c0,8.9,6,14.3,16.1,14.3c14.3,0,27.8-1.7,35-2.6c1.1-0.1,2.1-0.3,3-0.4c1.3-0.2,2.6-0.6,2.6-2.7l0-5.2
			C1866.7,1231.4,1866.8,1230.4,1866.1,1229.6z"/>
		<path d="M1900.3,1204.4l-13.2,0v-33.1c0-1.7-1-2.7-2.6-2.7h-8.7c-1.6,0-2.6,1-2.6,2.7v97c0,1.7,1,2.7,2.6,2.7h8.7
			c1.6,0,2.6-1,2.6-2.7l0-51.8h13.2c1.7,0,2.7-1,2.7-2.6v-7C1902.9,1205.3,1901.9,1204.4,1900.3,1204.4z"/>
		<path d="M1967.3,1182.7v-4.6c0-3.1-1.5-4.6-4.5-4.6h-40.9c-1.7,0-2.7,1-2.7,2.6v6.7c0,1.6,1,2.6,2.7,2.6h30c0.2,0,0.3,0,0.3,0
			c0.3,15.3-9.6,23-34.1,26.4c-0.7,0.1-1.6,0.3-2.1,1.1c-0.4,0.6-0.5,1.3-0.3,2.3l1,4.8c0.3,1.7,1.4,2.6,3.1,2.6c0.2,0,0.3,0,0.5,0
			C1953.2,1219.2,1967.3,1207.3,1967.3,1182.7z"/>
		<path d="M1971.3,1194h13.8c0.2,0,0.3,0,0.3,0v8.2c0,0.1,0,0.2,0,0.2H1969c-1.7,0-2.7,1-2.7,2.6v6.7c0,1.6,1,2.6,2.7,2.6h16.2
			c0.2,0,0.3,0,0.3,0v9.1c0,1.7,1,2.7,2.6,2.7h8.5c1.6,0,2.6-1,2.6-2.7v-52c0-1.7-1-2.7-2.6-2.7h-8.5c-1.6,0-2.6,1-2.6,2.7v10.5
			c0,0.1,0,0.2,0,0.3h-14.1c-1.7,0-2.7,1-2.7,2.6v6.7C1968.6,1193,1969.6,1194,1971.3,1194z"/>
		<path d="M1966.3,1228.4c-20.1,0-32.3,5.9-33.6,16.2c-0.4,3.8-0.4,6.5,0,10.3l0,0c1.3,10.2,13.5,16.1,33.6,16.1
			c20.1,0,32.3-5.9,33.6-16.2c0.4-3.8,0.4-6.4,0-10.2C1998.6,1234.3,1986.4,1228.4,1966.3,1228.4z M1984.9,1252.8L1984.9,1252.8
			c-0.7,4.5-6.8,6.7-18.6,6.7c-11.8,0-17.9-2.2-18.6-6.7c-0.3-1.8-0.3-4.4,0-6.2c0.7-4.5,6.8-6.7,18.6-6.7c11.8,0,17.9,2.2,18.6,6.7
			C1985.2,1248.5,1985.2,1251,1984.9,1252.8z"/>
		<path d="M2105.4,1168.7h-8.5c-1.6,0-2.6,1-2.6,2.7v97c0,1.7,1,2.7,2.6,2.7h8.5c1.6,0,2.6-1,2.6-2.7v-97
			C2108,1169.7,2107,1168.7,2105.4,1168.7z"/>
		<path d="M2085.8,1169.7h-8.4c-1.5,0-2.6,1.2-2.6,3.1v28.1c0,0.1,0,0.2,0,0.3h-11c-1.7,0-2.7,1-2.7,2.6v6.7c0,1.6,1,2.6,2.7,2.6
			h10.7c0.2,0,0.3,0,0.3,0v54.2c0,1.7,1,2.7,2.6,2.7h8.4c1.6,0,2.6-1,2.6-2.7v-94.8C2088.3,1170.7,2087.4,1169.7,2085.8,1169.7z"/>
		<path d="M2070.7,1234.2c-15.7-10.5-18.6-22.4-18.6-40.9v-3.7c0-0.3,0-0.4,0-0.4c0,0,0.1,0,0.3,0h13.2c1.7,0,2.7-1,2.7-2.6v-6.7
			c0-1.6-1-2.6-2.7-2.6h-41.1c-1.7,0-2.7,1-2.7,2.6v6.7c0,1.6,1,2.6,2.7,2.6h13.1c0.2,0,0.2,0,0.3,0c0,0,0.1,0.1,0.1,0.4v3.7
			c0,18.4-3,30.4-18.6,40.8c-0.6,0.4-1,0.9-1.2,1.6c-0.1,0.6,0,1.3,0.4,1.9l3.6,5.7c0.4,0.7,1,1.1,1.7,1.3c0.2,0,0.4,0.1,0.6,0.1
			c0.5,0,1-0.1,1.7-0.5c9.6-5.9,15.7-12.1,19-19.4c3.4,7.3,9.5,13.5,19,19.4c0.9,0.6,1.7,0.6,2.2,0.5c0.7-0.2,1.3-0.6,1.7-1.3
			l3.6-5.7c0.4-0.6,0.5-1.3,0.4-1.9C2071.7,1235.1,2071.3,1234.6,2070.7,1234.2z"/>
	</g>
</g>
<g>
	<g>
		<path d="M2051.4,2054.8c-0.2-1.1-1.3-1.9-2.5-1.5c-1.2,0.4-2.6,0.7-4.1,1c-2.4,0.5-4.8,0.7-7.3,0.7c-6.6,0-11.3-1.8-14-5.4
			c-2.8-3.6-4.2-8.5-4.2-14.7c0-6.4,1.5-11.4,4.4-14.9c2.9-3.5,7.2-5.3,12.8-5.3c2.4,0,4.6,0.2,6.7,0.7c1.3,0.3,2.6,0.7,3.7,1
			c1.1,0.4,2.2-0.3,2.5-1.4l2.1-7.9c0.3-1-0.3-2-1.2-2.4c-4.7-1.7-9.7-2.6-15-2.6c-4.8,0-9,0.8-12.8,2.5c-3.8,1.7-7,4-9.7,6.9
			c-2.7,2.9-4.7,6.4-6.1,10.4c-1.4,4-2.1,8.3-2.1,12.9c0,4.7,0.6,9,1.9,13c1.3,4,3.2,7.4,5.8,10.3c2.6,2.9,5.8,5.2,9.7,6.8
			c3.9,1.6,8.5,2.4,13.8,2.4c3.4,0,6.7-0.3,9.9-1c2.3-0.5,4.2-1,5.7-1.5c0.9-0.3,1.4-1.2,1.1-2.9L2051.4,2054.8z"/>
		<path d="M1642.7,2054.8c-0.2-1.1-1.3-1.9-2.5-1.5c-1.2,0.4-2.6,0.7-4.1,1c-2.4,0.5-4.8,0.7-7.2,0.7c-6.6,0-11.3-1.8-14-5.4
			c-2.8-3.6-4.2-8.5-4.2-14.7c0-6.4,1.5-11.4,4.4-14.9c2.9-3.5,7.2-5.3,12.8-5.3c2.4,0,4.6,0.2,6.7,0.7c1.3,0.3,2.6,0.7,3.7,1
			c1.1,0.4,2.2-0.3,2.5-1.4l2.1-7.9c0.3-1-0.3-2-1.2-2.4c-4.7-1.7-9.7-2.6-15-2.6c-4.8,0-9,0.8-12.8,2.5c-3.8,1.7-7,4-9.7,6.9
			c-2.7,2.9-4.7,6.4-6.1,10.4c-1.4,4-2.1,8.3-2.1,12.9c0,4.7,0.6,9,1.9,13c1.3,4,3.2,7.4,5.8,10.3c2.6,2.9,5.8,5.2,9.7,6.8
			c3.9,1.6,8.5,2.4,13.8,2.4c3.4,0,6.7-0.3,9.9-1c2.3-0.5,4.2-1,5.7-1.5c0.9-0.3,1.4-1.2,1.1-2.9L1642.7,2054.8z"/>
		<path d="M1785.1,2002.2c-3.6,0-7.2,0.7-10.7,2.1c-3.5,1.4-6.6,3.4-9.3,6.2c-2.7,2.7-4.9,6.2-6.5,10.3c-1.6,4.1-2.4,8.9-2.4,14.4
			c0,4.7,0.6,9,1.9,12.9c1.3,3.9,3.2,7.3,5.8,10.2c2.6,2.9,5.9,5.2,10,6.8c4,1.6,8.8,2.4,14.3,2.4c2.1,0,4.2-0.1,6.3-0.4
			c2.1-0.2,4-0.5,5.8-0.9c1.8-0.4,3.4-0.8,4.8-1.2c0.3-0.1,1-0.3,1-0.3l0,0c1.4-0.5,2.2-1.6,1.9-3l-0.1-0.6l-1.1-6.7
			c-0.2-1.2-1.4-1.9-2.5-1.5c-1.3,0.4-2.9,0.8-4.7,1.2c-2.9,0.6-6.1,1-9.6,1c-5.9,0-10.5-1.4-13.6-4.1c-3.1-2.7-4.9-6.6-5.3-11.6
			h38.7c1.3,0,2.4-1,2.4-2.3c0.1-1.2,0.1-2.6,0.1-3c0-10.5-2.4-18.5-7.2-23.8C1800.3,2004.9,1793.7,2002.2,1785.1,2002.2z
			 M1771.2,2028.7c0.2-1.8,0.7-3.6,1.3-5.3c0.6-1.7,1.5-3.3,2.7-4.6c1.1-1.3,2.6-2.4,4.2-3.3c1.7-0.8,3.6-1.2,5.8-1.2
			c2.1,0,4,0.4,5.5,1.1c1.5,0.8,2.9,1.8,3.9,3.1c1.1,1.3,1.9,2.9,2.4,4.6c0.6,1.8,0.8,3.7,0.8,5.6H1771.2z"/>
		<path d="M1954.5,2010.4c-1.8-2.5-4.2-4.4-7.4-5.8c-3.1-1.4-7.1-2.1-11.8-2.1c-1.9,0-3.9,0.2-5.7,0.6c-1.9,0.4-3.6,0.9-5.3,1.5
			c-1.7,0.6-3.2,1.2-4.5,2c-1.3,0.7-2.5,1.4-3.3,2c-1.8-1.8-4.1-3.3-6.8-4.4c-2.7-1.1-6.2-1.7-10.5-1.7c-5,0-9.7,0.4-14.2,1.1
			c-2.5,0.4-4.6,0.8-6.4,1.2l0,0c0,0-0.4,0.1-0.5,0.1c-0.2,0-0.5,0.1-1.1,0.3c-1.7,0.5-2.8,2.1-2.8,4.1v0.3v1.7v48.7v1.2v2.2
			c0,1.7,1.2,2.7,2.7,2.7h2.2h0.5h3.6h0.5h2.2c1.5,0,2.7-1,2.7-2.7v-2.2v-1.2v-44.1c1-0.2,2.4-0.4,4.3-0.6c1.9-0.2,3.6-0.4,5.2-0.4
			c4.4,0,7.5,1.4,9.1,4.3c1.6,2.9,2.4,7.6,2.4,14.1v28.8c0,0,0,0,0,0v1.2c0,1.7,1.2,2.7,2.7,2.7h1.2h1.5h3.6h1.5h1.2
			c1.5,0,2.7-1,2.7-2.7v-3.3h0v-28.3c0-2.5-0.1-4.9-0.4-7.1c-0.2-2.2-0.7-4.3-1.3-6.3c1-0.7,2.6-1.4,4.6-2.2
			c2.1-0.8,4.2-1.1,6.5-1.1c4.5,0,7.6,1.4,9.2,4.3c1.6,2.9,2.4,7.6,2.4,14.1v28.8c0,0,0,0,0,0v1.2c0,1.7,1.2,2.7,2.7,2.7h1.2h1.5
			h3.6h1.5h1.2c1.5,0,2.7-1,2.7-2.7v-1.2v-2.1V2031c0-4.2-0.3-8.1-1-11.6C1957.5,2015.9,1956.3,2012.9,1954.5,2010.4z"/>
		<path d="M1983.5,1976.7c-2.5,0-4.6,0.8-6.3,2.4c-1.7,1.6-2.6,3.8-2.6,6.5c0,2.7,0.9,4.8,2.6,6.4c1.7,1.6,3.8,2.4,6.3,2.4
			c2.4,0,4.4-0.8,6.2-2.4c1.7-1.6,2.6-3.7,2.6-6.4c0-2.8-0.9-5-2.6-6.5C1988,1977.5,1985.9,1976.7,1983.5,1976.7z"/>
		<path d="M2106.9,2042.3c-0.7-2-1.8-3.7-3.4-5.3c-1.5-1.5-3.5-2.9-5.9-4.2c-2.4-1.2-5.3-2.5-8.7-3.7c-2.1-0.7-3.8-1.4-5.2-2.1
			c-1.4-0.7-2.6-1.3-3.4-2c-0.9-0.7-1.5-1.4-1.8-2.2c-0.4-0.8-0.5-1.7-0.5-2.8c0-1.7,0.8-3.4,2.3-4.3c1.9-1.2,4.4-1.8,7.6-1.8
			c3.2,0,6.1,0.3,8.6,0.9c1.3,0.3,2.5,0.6,3.5,1c1.4,0.5,2.9-0.3,3.2-1.8l1.5-6.7c0.3-1.3-0.4-2.5-1.7-2.9c-1.4-0.4-3.2-0.8-5.3-1.3
			c-3.3-0.7-6.8-1-10.5-1c-7.2,0-12.9,1.6-17.1,4.9c-4.2,3.3-6.3,7.8-6.3,13.5c0,2.9,0.5,5.4,1.4,7.4c0.9,2,2.2,3.7,3.7,5.2
			c1.6,1.4,3.5,2.7,5.6,3.7c2.2,1.1,4.6,2.1,7.2,3c4.3,1.6,7.3,3.1,9.2,4.4c1.9,1.3,2.8,3.1,2.8,5.1c0,2.2-0.9,3.8-2.6,4.7
			c-1.7,0.9-4.5,1.4-8.3,1.4c-3.8,0-7.2-0.4-10.2-1.2c-1.9-0.5-3.5-1-5.1-1.5c-1.4-0.5-2.9,0.4-3.2,1.8l-1.5,7.2
			c-0.3,1.2,0.4,2.4,1.6,2.8c1.3,0.4,3,0.9,5,1.5c3.3,0.9,7.7,1.4,13.2,1.4c8.2,0,14.4-1.5,18.8-4.6c4.4-3,6.6-7.5,6.6-13.5
			C2108,2046.6,2107.6,2044.2,2106.9,2042.3z"/>
		<path d="M1664.3,1976.7c-2.5,0-4.6,0.8-6.3,2.4c-1.7,1.6-2.6,3.8-2.6,6.5c0,2.7,0.9,4.8,2.6,6.4c1.7,1.6,3.8,2.4,6.3,2.4
			c2.4,0,4.4-0.8,6.2-2.4c1.7-1.6,2.6-3.7,2.6-6.4c0-2.8-0.9-5-2.6-6.5C1668.7,1977.5,1666.6,1976.7,1664.3,1976.7z"/>
		<path d="M1668.8,2003.8h-2.2h-0.5h-3.6h-0.5h-2.2c-1.5,0-2.7,1-2.7,2.7v2.2v1.2v50.1v1.2v2.2c0,1.7,1.2,2.7,2.7,2.7h2.2h0.5h3.6
			h0.5h2.2c1.5,0,2.7-1,2.7-2.7v-2.2v-1.2v-50.1v-1.2v-2.2C1671.5,2004.8,1670.3,2003.8,1668.8,2003.8z"/>
		<path d="M1988.1,2003.8h-2.2h-0.5h-3.6h-0.5h-2.2c-1.5,0-2.7,1-2.7,2.7v2.2v1.2v50.1v1.2v2.2c0,1.7,1.2,2.7,2.7,2.7h2.2h0.5h3.6
			h0.5h2.2c1.5,0,2.7-1,2.7-2.7v-2.2v-1.2v-50.1v-1.2v-2.2C1990.7,2004.8,1989.6,2003.8,1988.1,2003.8z"/>
		<path d="M1741.8,1978.8c0-1.7-1.2-2.7-2.7-2.7h-1.8h-0.9h-3.6h-0.9h-1.8c-1.5,0-2.7,1-2.7,2.7v1.7v1.6v23.8
			c-1.7-0.9-3.6-1.7-5.9-2.4c-2.3-0.7-5-1.1-8-1.1c-4.4,0-8.4,0.8-11.8,2.3c-3.4,1.5-6.3,3.7-8.7,6.6c-2.4,2.9-4.2,6.3-5.4,10.3
			c-1.2,4-1.8,8.5-1.8,13.4c0,5,0.7,9.5,2.2,13.5c1.5,4,3.6,7.4,6.3,10.2c2.7,2.8,6,5,9.9,6.5s8.3,2.3,13.2,2.3
			c4.8,0,9.3-0.4,13.6-1.1c2.9-0.5,5.4-1,7.7-1.5c1.8-0.4,3.1-2.1,3.1-4v-80.4V1978.8z M1727.5,2054c-1,0.2-2.4,0.5-4,0.7
			c-1.6,0.2-3.6,0.3-5.9,0.3c-5.3,0-9.5-1.8-12.5-5.4c-3-3.6-4.5-8.6-4.5-14.9c0-6.1,1.2-10.9,3.6-14.5c2.4-3.6,6.2-5.3,11.5-5.3
			c2.4,0,4.6,0.4,6.7,1.1c2.1,0.8,3.8,1.6,5.1,2.4V2054z"/>
		<path d="M1861.6,2004c0,0-0.2-0.1-0.2-0.1c-0.1,0-0.5-0.1-0.5-0.1l0,0c0,0-0.1,0-0.1,0c-1.1-0.2-2.2-0.5-3.3-0.6
			c-1.3-0.2-2.5-0.4-3.8-0.5c-1.3-0.1-2.4-0.2-3.3-0.2c-5.1,0-9.7,0.5-13.8,1.4c-2.7,0.6-5.1,1.2-7.2,1.8c-1.9,0.6-3.2,2.4-3.2,4.4
			v51v2.2c0,1.7,1.2,2.7,2.7,2.7h2.2h0.5h3.6h0.5h2.2c1.5,0,2.7-1,2.7-2.7v-2.2v-1.2v-43.7c0.7-0.2,2-0.6,3.7-0.9
			c1.8-0.3,3.5-0.5,5-0.5c2.8,0,5.2,0.2,7.3,0.7c0.9,0.2,1.8,0.4,2.5,0.6c1.3,0.3,2.7-0.5,2.9-1.9l1.4-6.6l0.1-0.4
			C1863.7,2005.8,1863.2,2004.4,1861.6,2004z"/>
	</g>
	<path d="M1949.2,1681.4l-104.7-0.4c-69.8-0.3-126.7,56.2-126.9,126c-0.3,69.8,56.2,126.7,126,126.9h0
		c69.8,0.3,126.7-56.2,126.9-126l0.4-104.7C1970.9,1691.2,1961.2,1681.4,1949.2,1681.4z M1892.8,1869.4
		c-35.7,27.9-88,20.1-113.8-18.1c-22.3-33-15.9-78.3,14.5-104c19-16.1,43.2-21.5,65.7-17.2c2,0.4,3,2.5,2,4.3
		c-3.1,5.8-5.1,12.3-5.8,19.2c-0.2,2.1-0.2,5.6-0.2,8.2c0,1.8-1.6,3.2-3.4,2.9c-11.9-2.2-24.7,0.6-35,8.6
		c-19.8,15.5-22.8,44.6-6,63.8c14.6,16.7,39.9,19.9,58.1,7.3c11.9-8.2,18.4-21.1,19-34.3c0.1-1.9,1.9-3.2,3.8-2.7
		c3.2,1,6.5,1.6,9.9,1.9c6.1,0.6,12.1,0,17.7-1.4c1.9-0.5,3.7,1,3.6,3C1922,1833.1,1911.7,1854.7,1892.8,1869.4z M1928.9,1761.4
		c-1.4,13.1-13.2,22.6-26.3,21.2c-13.1-1.4-22.6-13.2-21.2-26.3c1.4-13.1,13.2-22.6,26.3-21.2
		C1920.8,1736.6,1930.3,1748.4,1928.9,1761.4z"/>
</g>
<g>
	<path fill="#FFFFFF" d="M2215.4,1019.3l-39.5-0.1c-26.3-0.1-47.8,21.2-47.9,47.5c-0.1,26.3,21.2,47.8,47.5,47.9h0
		c26.3,0.1,47.8-21.2,47.9-47.5l0.1-39.5C2223.6,1023,2219.9,1019.3,2215.4,1019.3z M2194.1,1090.2c-13.5,10.5-33.2,7.6-42.9-6.8
		c-8.4-12.5-6-29.5,5.5-39.2c7.2-6.1,16.3-8.1,24.8-6.5c0.7,0.1,1.1,0.9,0.8,1.6c-1.2,2.2-1.9,4.6-2.2,7.2c-0.1,0.8-0.1,2.1-0.1,3.1
		c0,0.7-0.6,1.2-1.3,1.1c-4.5-0.8-9.3,0.2-13.2,3.2c-7.5,5.8-8.6,16.8-2.3,24.1c5.5,6.3,15,7.5,21.9,2.7c4.5-3.1,7-8,7.2-13
		c0-0.7,0.7-1.2,1.4-1c1.2,0.4,2.4,0.6,3.7,0.7c2.3,0.2,4.5,0,6.7-0.5c0.7-0.2,1.4,0.4,1.4,1.1
		C2205.1,1076.5,2201.2,1084.7,2194.1,1090.2z M2207.7,1049.5c-0.5,4.9-5,8.5-9.9,8c-4.9-0.5-8.5-5-8-9.9c0.5-4.9,5-8.5,9.9-8
		C2204.7,1040.1,2208.2,1044.6,2207.7,1049.5z"/>
	<g>
		<path fill="#FFFFFF" d="M2319.6,1056.3l-10,0v-25.2c0-1.3-0.7-2-1.9-2h-6.6c-1.2,0-1.9,0.8-1.9,2v73.9c0,1.3,0.7,2,1.9,2h6.6
			c1.2,0,1.9-0.8,1.9-2l0-39.5h10c1.3,0,2-0.7,2-1.9v-5.3C2321.7,1057.1,2320.9,1056.3,2319.6,1056.3z M2309.5,1065.6
			C2309.5,1065.6,2309.5,1065.6,2309.5,1065.6v-0.6V1065.6z"/>
		<path fill="#FFFFFF" d="M2293.7,1078.6c-14.1-7.7-16-20-16-31v-10.9c0-1.3-0.7-2-2-2h-6.8c-1.2,0-2,0.8-2,2v10.9
			c0,11-1.9,23.2-16,30.9c-0.6,0.3-1,0.7-1.1,1.2c-0.1,0.5-0.1,1.1,0.2,1.7l2,4.2c0.2,0.4,0.5,0.7,0.9,0.9c0.6,0.2,1.3,0.2,2-0.1
			c8.3-3.9,14.2-9.3,17.3-15.8c3,6.5,9,11.9,17.3,15.8c0.4,0.2,0.8,0.3,1.2,0.3c0.3,0,0.6,0,0.8-0.1c0.4-0.2,0.8-0.5,0.9-0.8l2-4.2
			C2295.1,1080.3,2294.8,1079.2,2293.7,1078.6z"/>
		<path fill="#FFFFFF" d="M2392.1,1029.1h-6.6c-1.2,0-2,0.8-2,2v73.9c0,1.3,0.7,2,2,2h6.6c1.2,0,2-0.8,2-2v-73.9
			C2394.1,1029.9,2393.4,1029.1,2392.1,1029.1z"/>
		<path fill="#FFFFFF" d="M2353.4,1034.4c-12.9,0-19.5,5.4-20.5,17c-0.6,6.3-0.6,12.6,0,18.8c1,11.6,7.6,17,20.5,17
			c12.9,0,19.4-5.4,20.5-17c0.6-6.2,0.6-12.6,0-18.8C2372.9,1039.8,2366.3,1034.4,2353.4,1034.4z M2363.1,1067.3
			c-0.7,7.4-1.9,10.8-9.7,10.8c-7.8,0-9-3.5-9.7-10.8c-0.4-4.4-0.4-8.7,0-13c0.7-7.4,1.9-10.8,9.7-10.8c7.8,0,9,3.5,9.7,10.8
			C2363.5,1058.6,2363.5,1062.9,2363.1,1067.3z"/>
		<path fill="#FFFFFF" d="M2455.6,1075.6c-0.3-0.3-0.8-0.6-1.7-0.5c-8.4,0.7-17.4,1.1-26,1.1c-2,0-3.2-0.3-3.7-0.8
			c-0.6-0.6-0.6-1.6-0.6-3V1045c0-0.1,0-0.2,0-0.2c0,0,0.1,0,0.2,0h23.2c1.3,0,2-0.7,2-1.9v-5.1c0-1.2-0.8-1.9-2-1.9h-30.8
			c-2.3,0-3.4,1.1-3.4,3.5v35.2c0,6.8,4.6,10.9,12.2,10.9c10.9,0,21.2-1.3,26.7-2c0.9-0.1,1.6-0.2,2.3-0.3c1-0.2,2-0.4,2-2l0-4
			C2456.1,1076.9,2456.2,1076.1,2455.6,1075.6z"/>
		<path fill="#FFFFFF" d="M2481.7,1056.3l-10,0v-25.2c0-1.3-0.7-2-2-2h-6.6c-1.2,0-1.9,0.8-1.9,2v73.9c0,1.3,0.7,2,1.9,2h6.6
			c1.2,0,2-0.8,2-2l0-39.5h10c1.3,0,2-0.7,2-1.9v-5.3C2483.7,1057.1,2482.9,1056.3,2481.7,1056.3z"/>
		<path fill="#FFFFFF" d="M2532.7,1039.8v-3.5c0-2.3-1.1-3.5-3.4-3.5h-31.2c-1.3,0-2,0.7-2,1.9v5.1c0,1.2,0.8,1.9,2,1.9h22.9
			c0.1,0,0.2,0,0.2,0c0.2,11.7-7.3,17.5-26,20.2c-0.5,0.1-1.2,0.2-1.6,0.8c-0.3,0.4-0.4,1-0.2,1.7l0.7,3.6c0.3,1.3,1,2,2.4,2
			c0.1,0,0.2,0,0.4,0C2522,1067.6,2532.7,1058.5,2532.7,1039.8z"/>
		<path fill="#FFFFFF" d="M2535.8,1048.4h10.5c0.1,0,0.2,0,0.2,0v6.2c0,0.1,0,0.1,0,0.2H2534c-1.3,0-2,0.7-2,2v5.1c0,1.2,0.8,2,2,2
			h12.3c0.1,0,0.2,0,0.2,0v6.9c0,1.3,0.7,2,1.9,2h6.5c1.2,0,1.9-0.8,1.9-2v-39.6c0-1.3-0.7-2-1.9-2h-6.5c-1.2,0-1.9,0.8-1.9,2v8
			c0,0.1,0,0.2,0,0.2h-10.8c-1.3,0-2,0.7-2,1.9v5.1C2533.8,1047.7,2534.5,1048.4,2535.8,1048.4z"/>
		<path fill="#FFFFFF" d="M2532,1074.7c-15.3,0-24.6,4.5-25.6,12.3c-0.3,2.9-0.3,5,0,7.8l0,0c1,7.8,10.3,12.2,25.6,12.2
			c15.3,0,24.6-4.5,25.6-12.3c0.3-2.9,0.3-4.9,0-7.8C2556.6,1079.1,2547.3,1074.7,2532,1074.7z M2546.2,1093.3L2546.2,1093.3
			c-0.6,3.5-5.2,5.1-14.2,5.1c-9,0-13.6-1.7-14.2-5.1c-0.2-1.4-0.2-3.3,0-4.7c0.6-3.4,5.2-5.1,14.2-5.1c9,0,13.6,1.7,14.2,5.1
			C2546.4,1089.9,2546.4,1091.9,2546.2,1093.3z"/>
		<path fill="#FFFFFF" d="M2638.1,1029.1h-6.5c-1.2,0-2,0.8-2,2v73.9c0,1.3,0.7,2,2,2h6.5c1.2,0,1.9-0.8,1.9-2v-73.9
			C2640,1029.9,2639.3,1029.1,2638.1,1029.1z"/>
		<path fill="#FFFFFF" d="M2623.1,1029.9h-6.4c-1.2,0-2,0.9-2,2.4v21.4c0,0.1,0,0.2,0,0.2h-8.4c-1.3,0-2,0.7-2,1.9v5.1
			c0,1.2,0.8,2,2,2h8.2c0.1,0,0.2,0,0.2,0v41.3c0,1.3,0.7,2,2,2h6.4c1.2,0,1.9-0.8,1.9-2V1032
			C2625,1030.7,2624.3,1029.9,2623.1,1029.9z"/>
		<path fill="#FFFFFF" d="M2611.6,1079.1c-11.9-8-14.2-17.1-14.2-31.1v-2.8c0-0.2,0-0.3,0-0.3c0,0,0.1,0,0.2,0h10c1.3,0,2-0.7,2-1.9
			v-5.1c0-1.2-0.8-1.9-2-1.9h-31.4c-1.3,0-2,0.7-2,1.9v5.1c0,1.2,0.8,1.9,2,1.9h10c0.1,0,0.2,0,0.2,0c0,0,0,0.1,0,0.3v2.8
			c0,14-2.3,23.2-14.2,31.1c-0.5,0.3-0.8,0.7-0.9,1.2c-0.1,0.5,0,1,0.3,1.5l2.8,4.4c0.3,0.5,0.8,0.8,1.3,1c0.1,0,0.3,0,0.4,0
			c0.4,0,0.8-0.1,1.3-0.4c7.3-4.5,11.9-9.2,14.5-14.8c2.6,5.6,7.2,10.3,14.5,14.8c0.7,0.4,1.3,0.4,1.7,0.3c0.5-0.1,1-0.5,1.3-1
			l2.8-4.4c0.3-0.5,0.4-1,0.3-1.5C2612.4,1079.8,2612,1079.3,2611.6,1079.1z"/>
	</g>
</g>
<g>
	<path fill="#FFFFFF" d="M2215.2,1826.7l-39.4-0.1c-26.3-0.1-47.7,21.1-47.8,47.5v0c-0.1,26.3,21.1,47.7,47.5,47.8
		c26.3,0.1,47.7-21.1,47.8-47.5l0.1-39.4C2223.4,1830.4,2219.8,1826.8,2215.2,1826.7z M2194,1897.6c-13.5,10.5-33.1,7.6-42.8-6.8
		c-8.4-12.4-6-29.5,5.5-39.2c7.2-6,16.3-8.1,24.7-6.5c0.7,0.1,1.1,0.9,0.8,1.6c-1.2,2.2-1.9,4.6-2.2,7.2c-0.1,0.8-0.1,2.1-0.1,3.1
		c0,0.7-0.6,1.2-1.3,1.1c-4.5-0.8-9.3,0.2-13.2,3.2c-7.5,5.8-8.6,16.8-2.3,24c5.5,6.3,15,7.5,21.9,2.7c4.5-3.1,6.9-7.9,7.2-12.9
		c0-0.7,0.7-1.2,1.4-1c1.2,0.4,2.4,0.6,3.7,0.7c2.3,0.2,4.5,0,6.7-0.5c0.7-0.2,1.4,0.4,1.4,1.1C2205,1883.9,2201.1,1892,2194,1897.6
		z M2207.6,1856.9c-0.5,4.9-5,8.5-9.9,8c-4.9-0.5-8.5-5-8-9.9c0.5-4.9,5-8.5,9.9-8S2208.1,1852,2207.6,1856.9z"/>
	<g>
		<path fill="#FFFFFF" d="M2597.1,1898.3c-0.1-0.9-1-1.4-1.9-1.2c-0.9,0.3-2,0.6-3.1,0.8c-1.8,0.4-3.6,0.5-5.5,0.5
			c-5,0-8.5-1.4-10.6-4.1c-2.1-2.7-3.2-6.4-3.2-11.1c0-4.9,1.1-8.6,3.3-11.3c2.2-2.7,5.5-4,9.7-4c1.8,0,3.5,0.2,5.1,0.5
			c1,0.2,1.9,0.5,2.8,0.8c0.8,0.3,1.7-0.2,1.9-1l1.6-6c0.2-0.7-0.2-1.5-0.9-1.8c-3.6-1.3-7.4-1.9-11.3-1.9c-3.6,0-6.8,0.6-9.7,1.9
			c-2.9,1.3-5.3,3-7.3,5.2c-2,2.2-3.6,4.8-4.6,7.9c-1.1,3-1.6,6.3-1.6,9.8c0,3.5,0.5,6.8,1.4,9.9c1,3,2.4,5.6,4.4,7.8
			c1.9,2.2,4.4,3.9,7.4,5.1c3,1.2,6.5,1.8,10.5,1.8c2.6,0,5.1-0.2,7.5-0.7c1.8-0.3,3.2-0.7,4.3-1.1c0.7-0.2,1.1-0.9,0.8-2.2
			L2597.1,1898.3z"/>
		<path fill="#FFFFFF" d="M2287.5,1898.3c-0.1-0.9-1-1.4-1.9-1.2c-0.9,0.3-2,0.6-3.1,0.8c-1.8,0.4-3.6,0.5-5.5,0.5
			c-5,0-8.5-1.4-10.6-4.1c-2.1-2.7-3.2-6.4-3.2-11.1c0-4.9,1.1-8.6,3.3-11.3c2.2-2.7,5.5-4,9.7-4c1.8,0,3.5,0.2,5.1,0.5
			c1,0.2,1.9,0.5,2.8,0.8c0.8,0.3,1.7-0.2,1.9-1l1.6-6c0.2-0.7-0.2-1.5-0.9-1.8c-3.6-1.3-7.4-1.9-11.3-1.9c-3.6,0-6.8,0.6-9.7,1.9
			c-2.9,1.3-5.3,3-7.3,5.2c-2,2.2-3.6,4.8-4.6,7.9c-1.1,3-1.6,6.3-1.6,9.8c0,3.5,0.5,6.8,1.4,9.9c1,3,2.4,5.6,4.4,7.8
			c1.9,2.2,4.4,3.9,7.4,5.1c3,1.2,6.5,1.8,10.5,1.8c2.6,0,5.1-0.2,7.5-0.7c1.8-0.3,3.2-0.7,4.3-1.1c0.7-0.2,1.1-0.9,0.8-2.2
			L2287.5,1898.3z"/>
		<path fill="#FFFFFF" d="M2395.3,1858.5c-2.8,0-5.5,0.5-8.1,1.6c-2.6,1.1-5,2.6-7,4.7c-2,2.1-3.7,4.7-4.9,7.8
			c-1.2,3.1-1.8,6.8-1.8,10.9c0,3.5,0.5,6.8,1.4,9.8c1,3,2.4,5.6,4.4,7.7c2,2.2,4.5,3.9,7.6,5.1c3.1,1.2,6.7,1.8,10.8,1.8
			c1.6,0,3.2-0.1,4.8-0.3c1.6-0.2,3-0.4,4.4-0.7c1.3-0.3,2.6-0.6,3.6-0.9c0.2-0.1,0.7-0.3,0.7-0.3l0,0c1.1-0.4,1.6-1.2,1.5-2.3
			l-0.1-0.5l-0.8-5.1c-0.1-0.9-1-1.4-1.9-1.2c-1,0.3-2.2,0.6-3.6,0.9c-2.2,0.5-4.6,0.7-7.2,0.7c-4.5,0-7.9-1-10.3-3.1
			c-2.4-2.1-3.7-5-4-8.8l29.3,0c1,0,1.8-0.8,1.8-1.8c0-0.9,0.1-2,0.1-2.3c0-8-1.8-14-5.4-18
			C2406.9,1860.5,2401.8,1858.5,2395.3,1858.5z M2384.8,1878.6c0.2-1.4,0.5-2.7,1-4.1c0.5-1.3,1.2-2.5,2-3.5c0.9-1,1.9-1.8,3.2-2.5
			c1.3-0.6,2.7-0.9,4.4-0.9c1.6,0,3,0.3,4.2,0.9c1.2,0.6,2.2,1.4,3,2.3c0.8,1,1.4,2.2,1.8,3.5c0.4,1.4,0.6,2.8,0.6,4.3H2384.8z"/>
		<path fill="#FFFFFF" d="M2523.7,1864.7c-1.4-1.9-3.2-3.4-5.6-4.4c-2.4-1-5.3-1.6-9-1.6c-1.5,0-2.9,0.1-4.3,0.4
			c-1.4,0.3-2.7,0.7-4,1.1c-1.3,0.4-2.4,0.9-3.4,1.5c-1,0.5-1.9,1.1-2.5,1.5c-1.4-1.4-3.1-2.5-5.2-3.3c-2.1-0.8-4.7-1.3-8-1.3
			c-3.8,0-7.4,0.3-10.8,0.8c-1.9,0.3-3.5,0.6-4.9,0.9l0,0c0,0-0.3,0.1-0.4,0.1c-0.2,0-0.3,0.1-0.8,0.2c-1.3,0.4-2.1,1.6-2.1,3.1v0.2
			v1.3v36.9v0.9v1.6c0,1.3,0.9,2,2,2.1h1.7h0.4h2.7h0.4h1.7c1.2,0,2-0.8,2-2.1v-1.6v-0.9v-33.4c0.7-0.1,1.8-0.3,3.2-0.4
			c1.4-0.2,2.8-0.3,4-0.3c3.4,0,5.7,1.1,6.9,3.3c1.2,2.2,1.8,5.8,1.8,10.7v21.8c0,0,0,0,0,0v0.9c0,1.3,0.9,2,2,2.1h0.9h1.1h2.7h1.1
			h0.9c1.2,0,2-0.8,2-2.1v-2.5h0v-21.4c0-1.9-0.1-3.7-0.3-5.4c-0.2-1.7-0.5-3.3-1-4.8c0.8-0.5,2-1.1,3.5-1.7c1.6-0.6,3.2-0.9,5-0.9
			c3.4,0,5.7,1.1,6.9,3.3c1.2,2.2,1.8,5.8,1.8,10.7v21.8c0,0,0,0,0,0v0.9c0,1.3,0.9,2,2,2.1h0.9h1.1h2.7h1.1h0.9c1.2,0,2-0.8,2-2.1
			v-0.9v-1.6v-21.9c0-3.2-0.3-6.1-0.8-8.8C2526,1868.9,2525,1866.6,2523.7,1864.7z"/>
		<path fill="#FFFFFF" d="M2545.7,1839.2c-1.9,0-3.5,0.6-4.8,1.8c-1.3,1.2-2,2.9-2,5c0,2,0.7,3.7,2,4.9c1.3,1.2,2.9,1.8,4.8,1.8
			c1.8,0,3.4-0.6,4.7-1.8c1.3-1.2,2-2.8,2-4.9c0-2.1-0.7-3.8-2-5C2549,1839.8,2547.5,1839.2,2545.7,1839.2z"/>
		<path fill="#FFFFFF" d="M2639.2,1888.9c-0.5-1.5-1.4-2.8-2.6-4c-1.2-1.2-2.7-2.2-4.5-3.2c-1.8-0.9-4-1.9-6.6-2.8
			c-1.6-0.5-2.9-1.1-4-1.6c-1.1-0.5-2-1-2.6-1.5c-0.7-0.5-1.1-1.1-1.4-1.7c-0.3-0.6-0.4-1.3-0.4-2.1c0-1.3,0.6-2.5,1.7-3.2
			c1.4-0.9,3.3-1.3,5.8-1.3c2.5,0,4.6,0.2,6.5,0.7c1,0.2,1.9,0.5,2.6,0.7c1.1,0.3,2.2-0.3,2.4-1.3l1.1-5.1c0.2-0.9-0.3-1.9-1.3-2.2
			c-1.1-0.3-2.4-0.6-4-1c-2.5-0.5-5.2-0.8-7.9-0.8c-5.5,0-9.8,1.2-13,3.7c-3.2,2.5-4.8,5.9-4.8,10.2c0,2.2,0.3,4.1,1,5.6
			c0.7,1.5,1.6,2.8,2.8,3.9c1.2,1.1,2.6,2,4.3,2.8c1.7,0.8,3.5,1.6,5.4,2.3c3.2,1.2,5.6,2.3,7,3.3c1.4,1,2.1,2.3,2.1,3.9
			c0,1.7-0.7,2.9-2,3.6c-1.3,0.7-3.4,1-6.3,1c-2.9,0-5.4-0.3-7.7-0.9c-1.4-0.4-2.7-0.8-3.8-1.2c-1.1-0.4-2.2,0.3-2.4,1.4l-1.1,5.4
			c-0.2,0.9,0.3,1.8,1.2,2.1c1,0.3,2.2,0.7,3.8,1.1c2.5,0.7,5.9,1,10,1c6.2,0,10.9-1.2,14.3-3.5c3.3-2.3,5-5.7,5-10.2
			C2640,1892.2,2639.7,1890.4,2639.2,1888.9z"/>
		<path fill="#FFFFFF" d="M2303.8,1839.2c-1.9,0-3.5,0.6-4.8,1.8c-1.3,1.2-2,2.9-2,5c0,2,0.7,3.7,2,4.9c1.3,1.2,2.9,1.8,4.8,1.8
			c1.8,0,3.4-0.6,4.7-1.8c1.3-1.2,2-2.8,2-4.9c0-2.1-0.7-3.8-2-5C2307.2,1839.8,2305.6,1839.2,2303.8,1839.2z"/>
		<path fill="#FFFFFF" d="M2307.2,1859.7h-1.7h-0.4h-2.7h-0.4h-1.7c-1.2,0-2,0.8-2,2.1v1.6v0.9v37.9v0.9v1.6c0,1.3,0.9,2,2,2.1h1.7
			h0.4h2.7h0.4h1.7c1.2,0,2-0.8,2-2.1v-1.6v-0.9v-37.9v-0.9v-1.6C2309.3,1860.4,2308.4,1859.7,2307.2,1859.7z"/>
		<path fill="#FFFFFF" d="M2549.1,1859.7h-1.7h-0.4h-2.7h-0.4h-1.7c-1.2,0-2,0.8-2,2.1v1.6v0.9v37.9v0.9v1.6c0,1.3,0.9,2,2,2.1h1.7
			h0.4h2.7h0.4h1.7c1.2,0,2-0.8,2-2.1v-1.6v-0.9v-37.9v-0.9v-1.6C2551.2,1860.4,2550.3,1859.7,2549.1,1859.7z"/>
		<path fill="#FFFFFF" d="M2362.6,1840.8c0-1.3-0.9-2-2-2.1h-1.3h-0.7h-2.7h-0.7h-1.3c-1.2,0-2,0.8-2,2.1v1.3v1.2v18
			c-1.3-0.7-2.8-1.3-4.5-1.8c-1.7-0.5-3.8-0.8-6-0.8c-3.4,0-6.3,0.6-8.9,1.8c-2.6,1.2-4.8,2.8-6.6,5c-1.8,2.2-3.2,4.8-4.1,7.8
			c-0.9,3-1.4,6.4-1.4,10.1c0,3.8,0.6,7.2,1.7,10.2c1.1,3,2.7,5.6,4.8,7.7c2.1,2.1,4.6,3.8,7.5,4.9s6.3,1.7,10,1.7
			c3.6,0,7-0.3,10.3-0.8c2.2-0.4,4.1-0.7,5.8-1.2c1.4-0.3,2.3-1.6,2.3-3v-60.9V1840.8z M2351.7,1897.8c-0.8,0.2-1.8,0.3-3,0.5
			c-1.2,0.2-2.7,0.2-4.5,0.2c-4,0-7.2-1.4-9.5-4.1c-2.3-2.7-3.4-6.5-3.4-11.3c0-4.6,0.9-8.3,2.7-11c1.8-2.7,4.7-4,8.7-4
			c1.8,0,3.5,0.3,5.1,0.9c1.6,0.6,2.9,1.2,3.8,1.8V1897.8z"/>
		<path fill="#FFFFFF" d="M2453.3,1859.8c0,0-0.1,0-0.2-0.1c-0.1,0-0.4-0.1-0.4-0.1l0,0c0,0,0,0,0,0c-0.8-0.2-1.7-0.3-2.5-0.5
			c-1-0.2-1.9-0.3-2.9-0.4c-1-0.1-1.8-0.1-2.5-0.1c-3.8,0-7.3,0.3-10.5,1c-2,0.4-3.8,0.9-5.4,1.4c-1.5,0.4-2.5,1.8-2.5,3.3l0,38.6
			v1.6c0,1.3,0.9,2,2,2.1h1.7h0.4h2.7h0.4h1.7c1.2,0,2-0.8,2-2.1v-1.6v-0.9v-33.1c0.5-0.2,1.5-0.5,2.8-0.7c1.3-0.2,2.6-0.4,3.8-0.4
			c2.1,0,3.9,0.2,5.5,0.5c0.7,0.1,1.3,0.3,1.9,0.4c1,0.2,2-0.4,2.2-1.4l1-5l0.1-0.3C2454.9,1861.3,2454.5,1860.2,2453.3,1859.8z"/>
	</g>
</g>
<g>
	<path fill="#FFFFFF" d="M3020,863.1l-104.2-0.4c-69.5-0.3-126.1,55.9-126.4,125.5s55.9,126.1,125.5,126.4
		c69.5,0.3,126.1-55.9,126.4-125.5l0.4-104.2C3041.7,872.9,3032,863.2,3020,863.1z M2963.9,1050.4c-35.6,27.8-87.6,20-113.3-18.1
		c-22.2-32.9-15.9-78,14.4-103.6c18.9-16,43-21.4,65.4-17.1c1.9,0.4,3,2.5,2,4.3c-3.1,5.8-5.1,12.2-5.7,19.1
		c-0.2,2.1-0.2,5.5-0.2,8.2c0,1.8-1.6,3.2-3.4,2.9c-11.9-2.2-24.6,0.6-34.9,8.6c-19.8,15.4-22.7,44.4-6,63.5
		c14.5,16.6,39.7,19.8,57.9,7.3c11.9-8.2,18.4-21,19-34.2c0.1-1.9,1.9-3.2,3.7-2.6c3.2,0.9,6.5,1.6,9.9,1.9c6.1,0.6,12,0,17.6-1.4
		c1.9-0.5,3.7,1,3.6,3C2993,1014.2,2982.7,1035.7,2963.9,1050.4z M2999.8,942.9c-1.4,13-13.1,22.5-26.2,21.1
		c-13-1.4-22.5-13.1-21.1-26.2c1.4-13,13.1-22.5,26.2-21.1C2991.8,918.1,3001.2,929.8,2999.8,942.9z"/>
	<g>
		<path fill="#FFFFFF" d="M2751.7,1204.4l-13.2,0v-33.1c0-1.7-1-2.7-2.6-2.7h-8.7c-1.6,0-2.6,1-2.6,2.7v97c0,1.7,1,2.7,2.6,2.7h8.7
			c1.6,0,2.6-1,2.6-2.7l0-51.8h13.2c1.7,0,2.7-1,2.7-2.6v-7C2754.3,1205.3,2753.3,1204.4,2751.7,1204.4z M2738.4,1216.5
			C2738.4,1216.5,2738.3,1216.5,2738.4,1216.5v-0.8V1216.5z"/>
		<path fill="#FFFFFF" d="M2717.6,1233.6c-18.5-10.1-21-26.2-21-40.6v-14.4c0-1.7-1-2.7-2.6-2.7h-8.9c-1.6,0-2.6,1-2.6,2.7v14.4
			c0,14.4-2.5,30.5-21,40.6c-0.8,0.4-1.3,0.9-1.5,1.6c-0.2,0.7-0.1,1.5,0.3,2.3l2.6,5.5c0.2,0.5,0.6,0.9,1.2,1.1
			c0.8,0.3,1.7,0.2,2.6-0.2c10.8-5.1,18.6-12.2,22.7-20.7c4,8.5,11.8,15.6,22.7,20.7c0.5,0.2,1,0.3,1.5,0.3c0.4,0,0.7-0.1,1.1-0.2
			c0.6-0.2,1-0.6,1.2-1.1l2.7-5.5C2719.6,1235.9,2719.1,1234.4,2717.6,1233.6z"/>
		<path fill="#FFFFFF" d="M2846.8,1168.7h-8.7c-1.6,0-2.6,1-2.6,2.7v97c0,1.7,1,2.7,2.6,2.7h8.7c1.6,0,2.6-1,2.6-2.7v-97
			C2849.4,1169.7,2848.4,1168.7,2846.8,1168.7z"/>
		<path fill="#FFFFFF" d="M2796,1175.6c-17,0-25.5,7.1-26.9,22.3c-0.7,8.2-0.7,16.5,0,24.7c1.4,15.2,9.9,22.3,26.9,22.3
			c17,0,25.5-7.1,26.9-22.3c0.7-8.2,0.7-16.5,0-24.7C2821.5,1182.6,2813,1175.6,2796,1175.6z M2808.7,1218.8
			c-1,9.7-2.5,14.2-12.8,14.2c-10.2,0-11.8-4.6-12.8-14.2c-0.5-5.8-0.5-11.4,0-17.1c1-9.7,2.5-14.2,12.8-14.2
			c10.2,0,11.8,4.6,12.8,14.2C2809.3,1207.4,2809.3,1213,2808.7,1218.8z"/>
		<path fill="#FFFFFF" d="M2930.1,1229.6c-0.4-0.4-1-0.8-2.2-0.7c-11,0.9-22.8,1.4-34.1,1.4c-2.6,0-4.2-0.3-4.9-1.1
			c-0.7-0.7-0.7-2.1-0.7-4v-35.8c0-0.2,0-0.3,0-0.3c0,0,0.1,0,0.3,0h30.4c1.7,0,2.7-1,2.7-2.6v-6.7c0-1.6-1-2.6-2.7-2.6h-40.4
			c-3,0-4.5,1.5-4.5,4.6v46.1c0,8.9,6,14.3,16.1,14.3c14.3,0,27.8-1.7,35-2.6c1.1-0.1,2.1-0.3,3-0.4c1.3-0.2,2.6-0.6,2.6-2.7l0-5.2
			C2930.7,1231.4,2930.8,1230.4,2930.1,1229.6z"/>
		<path fill="#FFFFFF" d="M2964.3,1204.4l-13.2,0v-33.1c0-1.7-1-2.7-2.6-2.7h-8.7c-1.6,0-2.6,1-2.6,2.7v97c0,1.7,1,2.7,2.6,2.7h8.7
			c1.6,0,2.6-1,2.6-2.7l0-51.8h13.2c1.7,0,2.7-1,2.7-2.6v-7C2966.9,1205.3,2965.9,1204.4,2964.3,1204.4z"/>
		<path fill="#FFFFFF" d="M3031.3,1182.7v-4.6c0-3.1-1.5-4.6-4.5-4.6h-40.9c-1.7,0-2.7,1-2.7,2.6v6.7c0,1.6,1,2.6,2.7,2.6h30
			c0.2,0,0.3,0,0.3,0c0.3,15.3-9.6,23-34.1,26.4c-0.7,0.1-1.6,0.3-2.1,1.1c-0.4,0.6-0.5,1.3-0.3,2.3l1,4.8c0.3,1.7,1.4,2.6,3.1,2.6
			c0.2,0,0.3,0,0.5,0C3017.2,1219.2,3031.3,1207.3,3031.3,1182.7z"/>
		<path fill="#FFFFFF" d="M3035.3,1194h13.8c0.2,0,0.3,0,0.3,0v8.2c0,0.1,0,0.2,0,0.2H3033c-1.7,0-2.7,1-2.7,2.6v6.7
			c0,1.6,1,2.6,2.7,2.6h16.2c0.2,0,0.3,0,0.3,0v9.1c0,1.7,1,2.7,2.6,2.7h8.5c1.6,0,2.6-1,2.6-2.7v-52c0-1.7-1-2.7-2.6-2.7h-8.5
			c-1.6,0-2.6,1-2.6,2.7v10.5c0,0.1,0,0.2,0,0.3h-14.1c-1.7,0-2.7,1-2.7,2.6v6.7C3032.6,1193,3033.6,1194,3035.3,1194z"/>
		<path fill="#FFFFFF" d="M3030.3,1228.4c-20.1,0-32.3,5.9-33.6,16.2c-0.4,3.8-0.4,6.5,0,10.3l0,0c1.3,10.2,13.5,16.1,33.6,16.1
			c20.1,0,32.3-5.9,33.6-16.2c0.4-3.8,0.4-6.4,0-10.2C3062.6,1234.3,3050.4,1228.4,3030.3,1228.4z M3048.9,1252.8L3048.9,1252.8
			c-0.7,4.5-6.8,6.7-18.6,6.7c-11.8,0-17.9-2.2-18.6-6.7c-0.3-1.8-0.3-4.4,0-6.2c0.7-4.5,6.8-6.7,18.6-6.7c11.8,0,17.9,2.2,18.6,6.7
			C3049.2,1248.5,3049.2,1251,3048.9,1252.8z"/>
		<path fill="#FFFFFF" d="M3169.4,1168.7h-8.5c-1.6,0-2.6,1-2.6,2.7v97c0,1.7,1,2.7,2.6,2.7h8.5c1.6,0,2.6-1,2.6-2.7v-97
			C3172,1169.7,3171,1168.7,3169.4,1168.7z"/>
		<path fill="#FFFFFF" d="M3149.8,1169.7h-8.4c-1.5,0-2.6,1.2-2.6,3.1v28.1c0,0.1,0,0.2,0,0.3h-11c-1.7,0-2.7,1-2.7,2.6v6.7
			c0,1.6,1,2.6,2.7,2.6h10.7c0.2,0,0.3,0,0.3,0v54.2c0,1.7,1,2.7,2.6,2.7h8.4c1.6,0,2.6-1,2.6-2.7v-94.8
			C3152.3,1170.7,3151.4,1169.7,3149.8,1169.7z"/>
		<path fill="#FFFFFF" d="M3134.7,1234.2c-15.7-10.5-18.6-22.4-18.6-40.9v-3.7c0-0.3,0-0.4,0-0.4c0,0,0.1,0,0.3,0h13.2
			c1.7,0,2.7-1,2.7-2.6v-6.7c0-1.6-1-2.6-2.7-2.6h-41.1c-1.7,0-2.7,1-2.7,2.6v6.7c0,1.6,1,2.6,2.7,2.6h13.1c0.2,0,0.2,0,0.3,0
			c0,0,0.1,0.1,0.1,0.4v3.7c0,18.4-3,30.4-18.6,40.8c-0.6,0.4-1,0.9-1.2,1.6c-0.1,0.6,0,1.3,0.4,1.9l3.6,5.7c0.4,0.7,1,1.1,1.7,1.3
			c0.2,0,0.4,0.1,0.6,0.1c0.5,0,1-0.1,1.7-0.5c9.6-5.9,15.7-12.1,19-19.4c3.4,7.3,9.5,13.5,19,19.4c0.9,0.6,1.7,0.6,2.2,0.5
			c0.7-0.2,1.3-0.6,1.7-1.3l3.6-5.7c0.4-0.6,0.5-1.3,0.4-1.9C3135.7,1235.1,3135.3,1234.6,3134.7,1234.2z"/>
	</g>
</g>
<g>
	<g>
		<path fill="#FFFFFF" d="M3115.4,2054.8c-0.2-1.1-1.3-1.9-2.5-1.5c-1.2,0.4-2.6,0.7-4.1,1c-2.4,0.5-4.8,0.7-7.3,0.7
			c-6.6,0-11.3-1.8-14-5.4c-2.8-3.6-4.2-8.5-4.2-14.7c0-6.4,1.5-11.4,4.4-14.9c2.9-3.5,7.2-5.3,12.8-5.3c2.4,0,4.6,0.2,6.7,0.7
			c1.3,0.3,2.6,0.7,3.7,1c1.1,0.4,2.2-0.3,2.5-1.4l2.1-7.9c0.3-1-0.3-2-1.2-2.4c-4.7-1.7-9.7-2.6-15-2.6c-4.8,0-9,0.8-12.8,2.5
			c-3.8,1.7-7,4-9.7,6.9c-2.7,2.9-4.7,6.4-6.1,10.4c-1.4,4-2.1,8.3-2.1,12.9c0,4.7,0.6,9,1.9,13c1.3,4,3.2,7.4,5.8,10.3
			c2.6,2.9,5.8,5.2,9.7,6.8c3.9,1.6,8.5,2.4,13.8,2.4c3.4,0,6.7-0.3,9.9-1c2.3-0.5,4.2-1,5.7-1.5c0.9-0.3,1.4-1.2,1.1-2.9
			L3115.4,2054.8z"/>
		<path fill="#FFFFFF" d="M2706.7,2054.8c-0.2-1.1-1.3-1.9-2.5-1.5c-1.2,0.4-2.6,0.7-4.1,1c-2.4,0.5-4.8,0.7-7.2,0.7
			c-6.6,0-11.3-1.8-14-5.4c-2.8-3.6-4.2-8.5-4.2-14.7c0-6.4,1.5-11.4,4.4-14.9c2.9-3.5,7.2-5.3,12.8-5.3c2.4,0,4.6,0.2,6.7,0.7
			c1.3,0.3,2.6,0.7,3.7,1c1.1,0.4,2.2-0.3,2.5-1.4l2.1-7.9c0.3-1-0.3-2-1.2-2.4c-4.7-1.7-9.7-2.6-15-2.6c-4.8,0-9,0.8-12.8,2.5
			c-3.8,1.7-7,4-9.7,6.9c-2.7,2.9-4.7,6.4-6.1,10.4c-1.4,4-2.1,8.3-2.1,12.9c0,4.7,0.6,9,1.9,13c1.3,4,3.2,7.4,5.8,10.3
			c2.6,2.9,5.8,5.2,9.7,6.8c3.9,1.6,8.5,2.4,13.8,2.4c3.4,0,6.7-0.3,9.9-1c2.3-0.5,4.2-1,5.7-1.5c0.9-0.3,1.4-1.2,1.1-2.9
			L2706.7,2054.8z"/>
		<path fill="#FFFFFF" d="M2849.1,2002.2c-3.6,0-7.2,0.7-10.7,2.1c-3.5,1.4-6.6,3.4-9.3,6.2c-2.7,2.7-4.9,6.2-6.5,10.3
			c-1.6,4.1-2.4,8.9-2.4,14.4c0,4.7,0.6,9,1.9,12.9c1.3,3.9,3.2,7.3,5.8,10.2c2.6,2.9,5.9,5.2,10,6.8c4,1.6,8.8,2.4,14.3,2.4
			c2.1,0,4.2-0.1,6.3-0.4c2.1-0.2,4-0.5,5.8-0.9c1.8-0.4,3.4-0.8,4.8-1.2c0.3-0.1,1-0.3,1-0.3l0,0c1.4-0.5,2.2-1.6,1.9-3l-0.1-0.6
			l-1.1-6.7c-0.2-1.2-1.4-1.9-2.5-1.5c-1.3,0.4-2.9,0.8-4.7,1.2c-2.9,0.6-6.1,1-9.6,1c-5.9,0-10.5-1.4-13.6-4.1
			c-3.1-2.7-4.9-6.6-5.3-11.6h38.7c1.3,0,2.4-1,2.4-2.3c0.1-1.2,0.1-2.6,0.1-3c0-10.5-2.4-18.5-7.2-23.8
			S2857.7,2002.2,2849.1,2002.2z M2835.2,2028.7c0.2-1.8,0.7-3.6,1.3-5.3c0.6-1.7,1.5-3.3,2.7-4.6c1.1-1.3,2.6-2.4,4.2-3.3
			c1.7-0.8,3.6-1.2,5.8-1.2c2.1,0,4,0.4,5.5,1.1c1.5,0.8,2.9,1.8,3.9,3.1c1.1,1.3,1.9,2.9,2.4,4.6c0.6,1.8,0.8,3.7,0.8,5.6H2835.2z"
			/>
		<path fill="#FFFFFF" d="M3018.5,2010.4c-1.8-2.5-4.2-4.4-7.4-5.8c-3.1-1.4-7.1-2.1-11.8-2.1c-1.9,0-3.9,0.2-5.7,0.6
			c-1.9,0.4-3.6,0.9-5.3,1.5c-1.7,0.6-3.2,1.2-4.5,2c-1.3,0.7-2.5,1.4-3.3,2c-1.8-1.8-4.1-3.3-6.8-4.4c-2.7-1.1-6.2-1.7-10.5-1.7
			c-5,0-9.7,0.4-14.2,1.1c-2.5,0.4-4.6,0.8-6.4,1.2l0,0c0,0-0.4,0.1-0.5,0.1c-0.2,0-0.5,0.1-1.1,0.3c-1.7,0.5-2.8,2.1-2.8,4.1v0.3
			v1.7v48.7v1.2v2.2c0,1.7,1.2,2.7,2.7,2.7h2.2h0.5h3.6h0.5h2.2c1.5,0,2.7-1,2.7-2.7v-2.2v-1.2v-44.1c0.9-0.2,2.4-0.4,4.3-0.6
			c1.9-0.2,3.6-0.4,5.2-0.4c4.4,0,7.5,1.4,9.1,4.3c1.6,2.9,2.4,7.6,2.4,14.1v28.8c0,0,0,0,0,0v1.2c0,1.7,1.2,2.7,2.7,2.7h1.2h1.5
			h3.6h1.5h1.2c1.5,0,2.7-1,2.7-2.7v-3.3h0v-28.3c0-2.5-0.1-4.9-0.4-7.1c-0.2-2.2-0.7-4.3-1.3-6.3c1-0.7,2.6-1.4,4.6-2.2
			c2.1-0.8,4.2-1.1,6.5-1.1c4.5,0,7.6,1.4,9.2,4.3c1.6,2.9,2.4,7.6,2.4,14.1v28.8c0,0,0,0,0,0v1.2c0,1.7,1.2,2.7,2.7,2.7h1.2h1.5
			h3.6h1.5h1.2c1.5,0,2.7-1,2.7-2.7v-1.2v-2.1V2031c0-4.2-0.3-8.1-1-11.6C3021.5,2015.9,3020.3,2012.9,3018.5,2010.4z"/>
		<path fill="#FFFFFF" d="M3047.5,1976.7c-2.5,0-4.6,0.8-6.3,2.4c-1.7,1.6-2.6,3.8-2.6,6.5c0,2.7,0.9,4.8,2.6,6.4
			c1.7,1.6,3.8,2.4,6.3,2.4c2.4,0,4.4-0.8,6.2-2.4c1.7-1.6,2.6-3.7,2.6-6.4c0-2.8-0.9-5-2.6-6.5
			C3052,1977.5,3049.9,1976.7,3047.5,1976.7z"/>
		<path fill="#FFFFFF" d="M3170.9,2042.3c-0.7-2-1.8-3.7-3.4-5.3c-1.5-1.5-3.5-2.9-5.9-4.2c-2.4-1.2-5.3-2.5-8.7-3.7
			c-2.1-0.7-3.8-1.4-5.2-2.1c-1.4-0.7-2.6-1.3-3.4-2c-0.9-0.7-1.5-1.4-1.8-2.2c-0.4-0.8-0.5-1.7-0.5-2.8c0-1.7,0.8-3.4,2.3-4.3
			c1.9-1.2,4.4-1.8,7.6-1.8c3.2,0,6.1,0.3,8.6,0.9c1.3,0.3,2.5,0.6,3.5,1c1.4,0.5,2.9-0.3,3.2-1.8l1.5-6.7c0.3-1.3-0.4-2.5-1.7-2.9
			c-1.4-0.4-3.2-0.8-5.3-1.3c-3.3-0.7-6.8-1-10.5-1c-7.2,0-12.9,1.6-17.1,4.9c-4.2,3.3-6.3,7.8-6.3,13.5c0,2.9,0.5,5.4,1.4,7.4
			c0.9,2,2.2,3.7,3.7,5.2c1.6,1.4,3.5,2.7,5.6,3.7c2.2,1.1,4.6,2.1,7.2,3c4.3,1.6,7.3,3.1,9.2,4.4c1.9,1.3,2.8,3.1,2.8,5.1
			c0,2.2-0.9,3.8-2.6,4.7c-1.7,0.9-4.5,1.4-8.3,1.4c-3.8,0-7.2-0.4-10.2-1.2c-1.9-0.5-3.5-1-5.1-1.5c-1.4-0.5-2.9,0.4-3.2,1.8
			l-1.5,7.2c-0.3,1.2,0.4,2.4,1.6,2.8c1.3,0.4,3,0.9,5,1.5c3.3,0.9,7.7,1.4,13.2,1.4c8.2,0,14.4-1.5,18.8-4.6
			c4.4-3,6.6-7.5,6.6-13.5C3172,2046.6,3171.6,2044.2,3170.9,2042.3z"/>
		<path fill="#FFFFFF" d="M2728.3,1976.7c-2.5,0-4.6,0.8-6.3,2.4c-1.7,1.6-2.6,3.8-2.6,6.5c0,2.7,0.9,4.8,2.6,6.4
			c1.7,1.6,3.8,2.4,6.3,2.4c2.4,0,4.4-0.8,6.2-2.4c1.7-1.6,2.6-3.7,2.6-6.4c0-2.8-0.9-5-2.6-6.5
			C2732.7,1977.5,2730.6,1976.7,2728.3,1976.7z"/>
		<path fill="#FFFFFF" d="M2732.8,2003.8h-2.2h-0.5h-3.6h-0.5h-2.2c-1.5,0-2.7,1-2.7,2.7v2.2v1.2v50.1v1.2v2.2
			c0,1.7,1.2,2.7,2.7,2.7h2.2h0.5h3.6h0.5h2.2c1.5,0,2.7-1,2.7-2.7v-2.2v-1.2v-50.1v-1.2v-2.2
			C2735.5,2004.8,2734.3,2003.8,2732.8,2003.8z"/>
		<path fill="#FFFFFF" d="M3052.1,2003.8h-2.2h-0.5h-3.6h-0.5h-2.2c-1.5,0-2.7,1-2.7,2.7v2.2v1.2v50.1v1.2v2.2
			c0,1.7,1.2,2.7,2.7,2.7h2.2h0.5h3.6h0.5h2.2c1.5,0,2.7-1,2.7-2.7v-2.2v-1.2v-50.1v-1.2v-2.2
			C3054.7,2004.8,3053.6,2003.8,3052.1,2003.8z"/>
		<path fill="#FFFFFF" d="M2805.8,1978.8c0-1.7-1.2-2.7-2.7-2.7h-1.8h-0.9h-3.6h-0.9h-1.8c-1.5,0-2.7,1-2.7,2.7v1.7v1.6v23.8
			c-1.7-0.9-3.6-1.7-5.9-2.4c-2.3-0.7-5-1.1-8-1.1c-4.4,0-8.4,0.8-11.8,2.3c-3.4,1.5-6.3,3.7-8.7,6.6c-2.4,2.9-4.2,6.3-5.4,10.3
			c-1.2,4-1.8,8.5-1.8,13.4c0,5,0.7,9.5,2.2,13.5c1.5,4,3.6,7.4,6.3,10.2c2.7,2.8,6,5,9.9,6.5s8.3,2.3,13.2,2.3
			c4.8,0,9.3-0.4,13.6-1.1c2.9-0.5,5.4-1,7.7-1.5c1.8-0.4,3.1-2.1,3.1-4v-80.4V1978.8z M2791.5,2054c-1,0.2-2.4,0.5-4,0.7
			c-1.6,0.2-3.6,0.3-5.9,0.3c-5.3,0-9.5-1.8-12.5-5.4c-3-3.6-4.5-8.6-4.5-14.9c0-6.1,1.2-10.9,3.6-14.5c2.4-3.6,6.2-5.3,11.5-5.3
			c2.4,0,4.6,0.4,6.7,1.1c2.1,0.8,3.8,1.6,5.1,2.4V2054z"/>
		<path fill="#FFFFFF" d="M2925.6,2004c0,0-0.2-0.1-0.2-0.1c-0.1,0-0.5-0.1-0.5-0.1l0,0c0,0-0.1,0-0.1,0c-1.1-0.2-2.2-0.5-3.3-0.6
			c-1.3-0.2-2.5-0.4-3.8-0.5c-1.3-0.1-2.4-0.2-3.3-0.2c-5.1,0-9.7,0.5-13.8,1.4c-2.7,0.6-5.1,1.2-7.2,1.8c-1.9,0.6-3.2,2.4-3.2,4.4
			v51v2.2c0,1.7,1.2,2.7,2.7,2.7h2.2h0.5h3.6h0.5h2.2c1.5,0,2.7-1,2.7-2.7v-2.2v-1.2v-43.7c0.7-0.2,2-0.6,3.7-0.9
			c1.8-0.3,3.5-0.5,5-0.5c2.8,0,5.2,0.2,7.3,0.7c0.9,0.2,1.8,0.4,2.5,0.6c1.3,0.3,2.7-0.5,2.9-1.9l1.4-6.6l0.1-0.4
			C2927.7,2005.8,2927.2,2004.4,2925.6,2004z"/>
	</g>
	<path fill="#FFFFFF" d="M3013.2,1681.4l-104.7-0.4c-69.8-0.3-126.7,56.2-126.9,126c-0.3,69.8,56.2,126.7,126,126.9h0
		c69.8,0.3,126.7-56.2,126.9-126l0.4-104.7C3034.9,1691.2,3025.2,1681.4,3013.2,1681.4z M2956.8,1869.4
		c-35.7,27.9-88,20.1-113.8-18.1c-22.3-33-15.9-78.3,14.5-104c19-16.1,43.2-21.5,65.7-17.2c2,0.4,3,2.5,2,4.3
		c-3.1,5.8-5.1,12.3-5.8,19.2c-0.2,2.1-0.2,5.6-0.2,8.2c0,1.8-1.6,3.2-3.4,2.9c-11.9-2.2-24.7,0.6-35,8.6
		c-19.8,15.5-22.8,44.6-6,63.8c14.6,16.7,39.9,19.9,58.1,7.3c11.9-8.2,18.4-21.1,19-34.3c0.1-1.9,1.9-3.2,3.8-2.7
		c3.2,1,6.5,1.6,9.9,1.9c6.1,0.6,12.1,0,17.7-1.4c1.9-0.5,3.7,1,3.6,3C2986,1833.1,2975.7,1854.7,2956.8,1869.4z M2992.9,1761.4
		c-1.4,13.1-13.2,22.6-26.3,21.2c-13.1-1.4-22.6-13.2-21.2-26.3c1.4-13.1,13.2-22.6,26.3-21.2
		C2984.8,1736.6,2994.3,1748.4,2992.9,1761.4z"/>
</g>
<path fill="#FFFFFF" d="M1106.4,0.8L894.8,0c-141.2-0.5-256,113.5-256.6,254.7s113.5,256,254.7,256.6
	c141.2,0.5,256-113.5,256.6-254.7l0.8-211.6C1150.4,20.7,1130.7,0.9,1106.4,0.8z M992.5,380.9c-72.2,56.3-177.8,40.5-229.9-36.7
	C717.5,277.5,730.3,186,791.9,134c38.4-32.5,87.3-43.4,132.7-34.7c3.9,0.8,6,5.1,4.1,8.6c-6.2,11.7-10.3,24.8-11.6,38.8
	c-0.4,4.2-0.4,11.2-0.3,16.6c0,3.7-3.3,6.5-6.9,5.9c-24.1-4.4-50,1.1-70.8,17.4c-40.1,31.3-46.1,90.1-12.2,128.9
	c29.4,33.7,80.6,40.1,117.5,14.7c24.1-16.6,37.3-42.7,38.5-69.4c0.2-3.9,3.9-6.5,7.6-5.4c6.4,1.9,13.1,3.3,20,3.9
	c12.3,1.2,24.4,0.1,35.7-2.9c3.9-1,7.6,2,7.4,6C1051.5,307.4,1030.7,351.1,992.5,380.9z M1065.4,162.6
	c-2.8,26.5-26.6,45.6-53.1,42.8c-26.5-2.8-45.6-26.6-42.8-53.1c2.8-26.5,26.6-45.6,53.1-42.8
	C1049.1,112.4,1068.2,136.2,1065.4,162.6z"/>
<g>
	<path fill="#00A7E1" d="M0,254.7L0,254.7C0.5,113.5,115.4-0.5,256.6,0l211.6,0.8c24.3,0.1,44,19.9,43.9,44.2l-0.8,211.6
		c-0.5,141.2-115.4,255.2-256.6,254.7l0,0C113.5,510.7-0.5,395.8,0,254.7z"/>
	<g>
		<path fill="#FFFFFF" d="M427.1,162.6c-2.8,26.5-26.6,45.6-53.1,42.8c-26.5-2.8-45.6-26.6-42.8-53.1c2.8-26.5,26.6-45.6,53.1-42.8
			C410.8,112.4,429.9,136.2,427.1,162.6z"/>
		<path fill="#FFFFFF" d="M372.1,259.4c-6.9-0.6-13.6-2-20-3.9c-3.7-1.1-7.4,1.5-7.6,5.4c-1.2,26.7-14.4,52.8-38.5,69.4
			c-36.8,25.4-88,19-117.5-14.7c-33.9-38.9-27.9-97.6,12.2-128.9c20.9-16.3,46.7-21.8,70.8-17.4c3.6,0.7,7-2.1,6.9-5.9
			c-0.1-5.4-0.1-12.4,0.3-16.6c1.3-14,5.4-27.1,11.6-38.8c1.9-3.5-0.2-7.9-4.1-8.6c-45.4-8.7-94.3,2.2-132.7,34.7
			C92,186,79.2,277.5,124.3,344.3c52.1,77.2,157.7,93,229.9,36.7c38.2-29.8,59-73.5,61-118.4c0.2-4-3.5-7-7.4-6
			C396.4,259.5,384.4,260.6,372.1,259.4z"/>
	</g>
</g>
<g>
</g>
<g>
</g>
<g>
</g>
<g>
</g>
<g>
</g>
<g>
</g>
<g>
</g>
<g>
</g>
<g>
</g>
<g>
</g>
<g>
</g>
<g>
</g>
<g>
</g>
<g>
</g>
<g>
</g>
</svg>
